<svg id="Groupe_4049" data-name="Groupe 4049" xmlns="http://www.w3.org/2000/svg" xmlns:xlink="http://www.w3.org/1999/xlink" width="23.952" height="24" viewBox="0 0 23.952 24">
  <defs>
    <clipPath id="clip-path">
      <rect id="Rectangle_2988" data-name="Rectangle 2988" width="23.952" height="24" fill="#fff" stroke="#fff" stroke-width="0.4"/>
    </clipPath>
  </defs>`
  <g id="Groupe_4049-2" data-name="Groupe 4049" clip-path="url(#clip-path)">
    <path id="Tracé_4001" data-name="Tracé 4001" d="M164.508,159.994h3.622a1.145,1.145,0,0,1,1.207,1.213c0,1.879,0,3.758,0,5.637a.633.633,0,0,1-.2.491q-.878.865-1.742,1.745a.631.631,0,0,1-.488.208c-2.012-.006-4.024,0-6.036,0a1.145,1.145,0,0,1-1.192-1.2q0-3.448,0-6.895a1.142,1.142,0,0,1,1.182-1.189q1.823,0,3.646,0m4.04,6.581v-4.239h-8.1c0,1.881,0,3.743,0,5.605,0,.45.121.569.575.569h5.582a.416.416,0,0,0,.022-.075c0-.468,0-.935,0-1.4,0-.323.132-.456.451-.457.482,0,.964,0,1.463,0m-.006-5.044c.083-.611-.044-.763-.629-.763-2.285,0-4.57.008-6.855-.007-.425,0-.72.134-.568.77Zm-1.131,6.355.53-.519h-.53Z" transform="translate(-151.953 -152.253)" fill="#fff"/>
    <path id="Tracé_4001_-_Contour" data-name="Tracé 4001 - Contour" d="M162.351,159.794h5.779a1.35,1.35,0,0,1,1.407,1.413q0,.834,0,1.669c0,1.3,0,2.645,0,3.967a.834.834,0,0,1-.263.634c-.564.556-1.149,1.142-1.739,1.742a.832.832,0,0,1-.628.268c-1.14,0-2.287,0-3.357,0h-2.683a1.338,1.338,0,0,1-1.392-1.4q0-3.448,0-6.9a1.342,1.342,0,0,1,1.382-1.389Zm2.157.4h-3.646a.944.944,0,0,0-.982.99q0,3.447,0,6.895a.946.946,0,0,0,.992,1h2.683c1.07,0,2.217,0,3.354,0a.435.435,0,0,0,.344-.148c.592-.6,1.178-1.19,1.744-1.747a.435.435,0,0,0,.144-.347c0-1.323,0-2.668,0-3.969q0-.834,0-1.669a.947.947,0,0,0-1.008-1.013h-3.622Zm-3.462.367h.013c.964.006,1.992.009,3.331.009l3.5,0h.022a.906.906,0,0,1,.711.215.969.969,0,0,1,.116.775l-.024.173h-8.385l-.037-.154a.874.874,0,0,1,.085-.771A.814.814,0,0,1,161.046,160.561Zm3.344.409c-1.34,0-2.368,0-3.334-.009h-.011c-.185,0-.3.031-.352.093a.391.391,0,0,0-.038.276h7.706a.444.444,0,0,0-.039-.285c-.045-.052-.183-.078-.41-.078h-.022Zm-4.138,1.166h8.5v4.639h-1.663c-.208,0-.25.044-.251.258q0,.412,0,.823,0,.29,0,.579a.289.289,0,0,1-.019.1c0,.008-.006.019-.011.033l-.043.143h-5.731c-.565,0-.775-.208-.775-.769,0-1.325,0-2.65,0-3.982Zm8.1.4h-7.7v1.424c0,1.332,0,2.657,0,3.982,0,.338.032.369.375.369h5.4q0-.227,0-.454,0-.412,0-.825a.582.582,0,0,1,.65-.656h1.264Zm-1.137,4.631h1.22l-1.22,1.195Z" transform="translate(-151.953 -152.253)" fill="#fff"/>
    <path id="Tracé_4002" data-name="Tracé 4002" d="M178.166,186.75a10.119,10.119,0,0,0,10.258-13.4c.032-.014.067-.031.1-.044l.634-.227a10.911,10.911,0,0,1-10.995,14.464c0,.237,0,.477,0,.716a.39.39,0,0,1-.639.36q-.925-.545-1.84-1.106a.389.389,0,0,1,0-.715q.914-.562,1.839-1.106a.39.39,0,0,1,.638.361c0,.216,0,.433,0,.7m-.783-.059-.772.463.772.461Z" transform="translate(-166.963 -164.702)" fill="#fff"/>
    <path id="Tracé_4002_-_Contour" data-name="Tracé 4002 - Contour" d="M177.8,188.9a.749.749,0,0,1-.38-.114c-.625-.369-1.245-.741-1.843-1.107a.587.587,0,0,1,0-1.056c.588-.362,1.208-.735,1.842-1.108a.748.748,0,0,1,.38-.113.586.586,0,0,1,.56.644c0,.148,0,.3,0,.457v.05c.109,0,.218,0,.324,0a10.432,10.432,0,0,0,4.505-.945,10.019,10.019,0,0,0,5.037-12.207l-.054-.172.166-.071.028-.012c.025-.011.054-.024.086-.036l.442-.158.389-.139.062.2a10.915,10.915,0,0,1-1.657,10.361,10.785,10.785,0,0,1-9.039,4.37l-.289,0v.014c0,.163,0,.332,0,.5A.585.585,0,0,1,177.8,188.9Zm0-3.1a.363.363,0,0,0-.177.058c-.632.372-1.25.744-1.836,1.1a.248.248,0,0,0-.141.188.244.244,0,0,0,.138.186c.6.365,1.214.737,1.837,1.1a.365.365,0,0,0,.177.058c.142,0,.16-.174.16-.248,0-.164,0-.332,0-.493q0-.11,0-.22v-.207l.207.007a10.791,10.791,0,0,0,11.281-8.974,11.563,11.563,0,0,0-.424-5.031l-.361.129a10.3,10.3,0,0,1-9.978,13.494h0c-.175,0-.354,0-.531-.01l-.193-.007v-.193c0-.087,0-.168,0-.246,0-.164,0-.306,0-.451C177.965,185.978,177.947,185.8,177.805,185.8Zm-.222,2.163-1.361-.813,1.361-.816Z" transform="translate(-166.963 -164.702)" fill="#fff"/>
    <path id="Tracé_4003" data-name="Tracé 4003" d="M35.3,1.95A9.894,9.894,0,0,0,26.563,5.9a9.914,9.914,0,0,0-1.525,9.45,1.261,1.261,0,0,1-.122.058c-.188.067-.376.132-.614.214A10.694,10.694,0,0,1,25.926,5.445,10.659,10.659,0,0,1,35.3,1.161c0-.23,0-.462,0-.693,0-.426.291-.591.66-.372q.9.534,1.8,1.08a.4.4,0,0,1,0,.743q-.905.553-1.82,1.092A.39.39,0,0,1,35.3,2.65c0-.216,0-.433,0-.7m.783.059.775-.462-.775-.455Z" transform="translate(-22.548 0.001)" fill="#fff"/>
    <path id="Tracé_4003_-_Contour" data-name="Tracé 4003 - Contour" d="M35.653-.2a.8.8,0,0,1,.406.124c.665.394,1.255.748,1.8,1.082a.645.645,0,0,1,.35.542.646.646,0,0,1-.351.542c-.657.4-1.253.759-1.822,1.094a.749.749,0,0,1-.38.113.585.585,0,0,1-.56-.644c0-.148,0-.3,0-.457q0-.025,0-.051c-.107,0-.211,0-.318,0a10.449,10.449,0,0,0-4.508.945,9.687,9.687,0,0,0-3.549,2.938,9.735,9.735,0,0,0-1.493,9.269l.051.165-.156.075-.03.015a.9.9,0,0,1-.111.05c-.137.049-.274.1-.43.15l-.381.132-.061-.2A10.911,10.911,0,0,1,25.767,5.324,10.784,10.784,0,0,1,34.8.952l.294,0V.947c0-.16,0-.32,0-.48C35.1.006,35.379-.2,35.653-.2Zm0,3.1a.365.365,0,0,0,.177-.058c.567-.333,1.161-.69,1.817-1.09.1-.062.159-.135.159-.2s-.058-.139-.159-.2c-.545-.333-1.132-.686-1.8-1.079a.408.408,0,0,0-.2-.069c-.134,0-.155.169-.156.27,0,.159,0,.318,0,.477v.421l-.207-.007c-.163-.005-.327-.008-.487-.008a10.4,10.4,0,0,0-8.718,4.213,10.436,10.436,0,0,0-2.077,4.769,11.562,11.562,0,0,0,.425,5.031l.362-.126A10.083,10.083,0,0,1,26.4,5.78a10.017,10.017,0,0,1,8.375-4.04c.171,0,.35,0,.526.01l.193.007V1.95c0,.087,0,.168,0,.246,0,.164,0,.307,0,.451C35.5,2.722,35.516,2.9,35.658,2.9ZM35.88.741l1.367.8-1.367.816Z" transform="translate(-22.548 0.001)" fill="#fff"/>
    <path id="Tracé_4004" data-name="Tracé 4004" d="M354.813,0a3.483,3.483,0,1,1-3.5,3.46,3.472,3.472,0,0,1,3.5-3.46m-.025,6.192a2.732,2.732,0,0,0,2.706-2.733,2.7,2.7,0,1,0-5.407.046,2.732,2.732,0,0,0,2.7,2.687" transform="translate(-334.314 -0.002)" fill="#fff"/>
    <path id="Tracé_4004_-_Contour" data-name="Tracé 4004 - Contour" d="M354.791,7.169h0a3.647,3.647,0,0,1-2.609-1.08,3.7,3.7,0,0,1-1.068-2.626A3.625,3.625,0,0,1,352.195.869,3.7,3.7,0,0,1,354.813-.2a3.661,3.661,0,0,1,3.654,3.658A3.7,3.7,0,0,1,357.4,6.088,3.64,3.64,0,0,1,354.791,7.169ZM354.813.2a3.3,3.3,0,0,0-2.337.952,3.228,3.228,0,0,0-.963,2.309,3.3,3.3,0,0,0,.952,2.344,3.249,3.249,0,0,0,2.325.962v0a3.243,3.243,0,0,0,2.323-.962,3.306,3.306,0,0,0,.953-2.347A3.261,3.261,0,0,0,354.813.2Zm-.042,6.192a2.941,2.941,0,0,1-2.885-2.885,2.929,2.929,0,0,1,2.9-2.933h.009a2.941,2.941,0,0,1,2.894,2.885,2.923,2.923,0,0,1-2.9,2.934ZM354.8.976h-.008a2.529,2.529,0,0,0-2.506,2.53,2.535,2.535,0,0,0,2.485,2.488h.015a2.523,2.523,0,0,0,2.507-2.532A2.535,2.535,0,0,0,354.8.976Z" transform="translate(-334.314 -0.002)" fill="#fff"/>
    <path id="Tracé_4005" data-name="Tracé 4005" d="M0,355.486a3.477,3.477,0,1,1,3.427,3.485A3.467,3.467,0,0,1,0,355.486m.773-.021A2.729,2.729,0,0,0,3.43,358.2a2.709,2.709,0,0,0,.093-5.416,2.73,2.73,0,0,0-2.75,2.686" transform="translate(0 -334.972)" fill="#fff"/>
    <path id="Tracé_4005_-_Contour" data-name="Tracé 4005 - Contour" d="M3.435,359.171H3.426a3.684,3.684,0,0,1,.068-7.367H3.5A3.614,3.614,0,0,1,6.09,352.89a3.706,3.706,0,0,1,1.063,2.622,3.615,3.615,0,0,1-1.086,2.594A3.728,3.728,0,0,1,3.435,359.171Zm.06-6.967a3.284,3.284,0,0,0-.068,6.567h.007a3.33,3.33,0,0,0,2.352-.95,3.218,3.218,0,0,0,.967-2.309,3.309,3.309,0,0,0-.948-2.341,3.216,3.216,0,0,0-2.3-.967ZM3.477,358.4H3.427a2.909,2.909,0,0,1,.1-5.816,2.886,2.886,0,0,1,2.037.9,2.872,2.872,0,0,1,.814,2.06A2.926,2.926,0,0,1,3.477,358.4Zm0-5.417A2.509,2.509,0,0,0,3.434,358a2.523,2.523,0,0,0,2.545-2.466,2.525,2.525,0,0,0-2.459-2.551Z" transform="translate(0 -334.972)" fill="#fff"/>
    <rect id="Rectangle_2978" data-name="Rectangle 2978" width="0.751" height="0.735" transform="translate(11.22 11.246)" fill="#fff"/>
    <path id="Rectangle_2978_-_Contour" data-name="Rectangle 2978 - Contour" d="M-.2-.2H.951V.935H-.2ZM.551.2H.2V.535H.551Z" transform="translate(11.22 11.246)" fill="#fff"/>
    <rect id="Rectangle_2979" data-name="Rectangle 2979" width="0.743" height="0.744" transform="translate(13.152 11.237)" fill="#fff"/>
    <path id="Rectangle_2979_-_Contour" data-name="Rectangle 2979 - Contour" d="M-.2-.2H.943V.944H-.2ZM.543.2H.2V.544H.543Z" transform="translate(13.152 11.237)" fill="#fff"/>
    <rect id="Rectangle_2980" data-name="Rectangle 2980" width="0.746" height="0.743" transform="translate(15.078 11.243)" fill="#fff"/>
    <path id="Rectangle_2980_-_Contour" data-name="Rectangle 2980 - Contour" d="M-.2-.2H.946V.943H-.2ZM.546.2H.2V.543H.546Z" transform="translate(15.078 11.243)" fill="#fff"/>
    <rect id="Rectangle_2981" data-name="Rectangle 2981" width="0.741" height="0.747" transform="translate(9.29 12.79)" fill="#fff"/>
    <path id="Rectangle_2981_-_Contour" data-name="Rectangle 2981 - Contour" d="M-.2-.2H.941V.947H-.2ZM.541.2H.2V.547H.541Z" transform="translate(9.29 12.79)" fill="#fff"/>
    <rect id="Rectangle_2982" data-name="Rectangle 2982" width="0.751" height="0.742" transform="translate(11.213 12.788)" fill="#fff"/>
    <path id="Rectangle_2982_-_Contour" data-name="Rectangle 2982 - Contour" d="M-.2-.2H.951V.942H-.2ZM.551.2H.2V.542H.551Z" transform="translate(11.213 12.788)" fill="#fff"/>
    <rect id="Rectangle_2983" data-name="Rectangle 2983" width="0.74" height="0.752" transform="translate(13.153 12.784)" fill="#fff"/>
    <path id="Rectangle_2983_-_Contour" data-name="Rectangle 2983 - Contour" d="M-.2-.2H.94V.952H-.2ZM.54.2H.2V.552H.54Z" transform="translate(13.153 12.784)" fill="#fff"/>
    <rect id="Rectangle_2984" data-name="Rectangle 2984" width="0.751" height="0.739" transform="translate(15.08 12.793)" fill="#fff"/>
    <path id="Rectangle_2984_-_Contour" data-name="Rectangle 2984 - Contour" d="M-.2-.2H.951V.939H-.2ZM.551.2H.2V.539H.551Z" transform="translate(15.08 12.793)" fill="#fff"/>
    <rect id="Rectangle_2985" data-name="Rectangle 2985" width="0.745" height="0.742" transform="translate(9.288 14.336)" fill="#fff"/>
    <path id="Rectangle_2985_-_Contour" data-name="Rectangle 2985 - Contour" d="M-.2-.2H.945V.942H-.2ZM.545.2H.2V.542H.545Z" transform="translate(9.288 14.336)" fill="#fff"/>
    <rect id="Rectangle_2986" data-name="Rectangle 2986" width="0.742" height="0.748" transform="translate(11.221 14.337)" fill="#fff"/>
    <path id="Rectangle_2986_-_Contour" data-name="Rectangle 2986 - Contour" d="M-.2-.2H.942V.948H-.2ZM.542.2H.2V.548H.542Z" transform="translate(11.221 14.337)" fill="#fff"/>
    <rect id="Rectangle_2987" data-name="Rectangle 2987" width="0.741" height="0.747" transform="translate(13.153 14.338)" fill="#fff"/>
    <path id="Rectangle_2987_-_Contour" data-name="Rectangle 2987 - Contour" d="M-.2-.2H.941V.947H-.2ZM.541.2H.2V.547H.541Z" transform="translate(13.153 14.338)" fill="#fff"/>
    <path id="Tracé_4006" data-name="Tracé 4006" d="M386.239,45.188l.569-.553.479.551,1.938-1.952.542.6c-.3.3-.62.628-.942.952-.385.387-.77.776-1.16,1.159a.4.4,0,0,1-.647,0c-.259-.25-.515-.5-.778-.763" transform="translate(-367.55 -41.142)" fill="#fff"/>
    <path id="Tracé_4006_-_Contour" data-name="Tracé 4006 - Contour" d="M387.341,46.318a.669.669,0,0,1-.463-.223c-.181-.175-.365-.356-.542-.531l-.237-.234-.146-.143.867-.843.477.548,1.936-1.95.809.9-.4.408c-.219.221-.445.45-.672.678l-.193.194c-.316.318-.643.647-.968.966A.664.664,0,0,1,387.341,46.318Zm-.816-1.129.092.091c.185.182.359.354.539.528a.34.34,0,0,0,.185.11.335.335,0,0,0,.184-.111c.324-.318.65-.646.965-.963l.193-.195c.227-.228.452-.456.671-.677l.139-.141-.275-.306-1.94,1.955-.482-.554Z" transform="translate(-367.55 -41.142)" fill="#fff"/>
    <path id="Tracé_4007" data-name="Tracé 4007" d="M50.085,385.616c-.246,0-.455,0-.663,0-.037,0-.1-.006-.108-.029-.133-.252-.367-.157-.561-.152-.072,0-.143.115-.214.177.075.066.141.165.228.191a1.354,1.354,0,0,0,.36.009.96.96,0,0,1,.929.736.922.922,0,0,1-.468,1.065c-.242.109-.334.239-.27.5h-.772a1.452,1.452,0,0,1-.01-.205c.01-.121-.031-.178-.153-.228a.884.884,0,0,1-.6-.9c.214,0,.43,0,.646,0,.036,0,.089.013.1.038.148.253.388.139.59.14.059,0,.166-.123.164-.186s-.105-.161-.179-.177a2.043,2.043,0,0,0-.408-.011.957.957,0,0,1-.912-.726.925.925,0,0,1,.434-1.058c.226-.118.4-.222.3-.524h.785a1.606,1.606,0,0,1,0,.2c-.017.133.035.192.164.244a.963.963,0,0,1,.617.9" transform="translate(-45.443 -365.681)" fill="#fff"/>
    <path id="Tracé_4007_-_Contour" data-name="Tracé 4007 - Contour" d="M49.572,388.315H48.357l-.011-.188c0-.018,0-.037,0-.055a.976.976,0,0,1-.005-.178s0-.009,0-.012l-.029-.013a1.08,1.08,0,0,1-.725-1.1l.014-.185h.463a1.191,1.191,0,0,1-.466-.668,1.119,1.119,0,0,1,.534-1.288c.245-.128.245-.156.2-.284l-.087-.263h1.262v.2c0,.021,0,.042,0,.062a.98.98,0,0,1,0,.162c0,.005,0,.01,0,.013a.339.339,0,0,0,.042.02,1.158,1.158,0,0,1,.742,1.068l.017.216H49.78a1.182,1.182,0,0,1,.47.681,1.128,1.128,0,0,1-.58,1.3c-.178.08-.193.127-.158.274Zm-.837-.4H49.1a.593.593,0,0,1,.405-.485.719.719,0,0,0,.357-.832.76.76,0,0,0-.738-.587h-.009c-.031,0-.062,0-.094,0s-.076,0-.116,0a.662.662,0,0,1-.2-.026.581.581,0,0,1-.248-.177c-.02-.021-.038-.04-.055-.055l-.171-.15.171-.15c.014-.012.032-.032.05-.052a.417.417,0,0,1,.291-.174c.031,0,.067,0,.1-.009a1.463,1.463,0,0,1,.165-.012.5.5,0,0,1,.423.2h.408a.721.721,0,0,0-.457-.513.4.4,0,0,1-.29-.427h-.354c-.021.285-.272.416-.436.5a.726.726,0,0,0-.333.829.758.758,0,0,0,.723.579h.02l.1,0,.115,0a.941.941,0,0,1,.213.021.452.452,0,0,1,.334.364.4.4,0,0,1-.125.275.345.345,0,0,1-.238.119,1.047,1.047,0,0,0-.123.011,1.412,1.412,0,0,1-.175.014.5.5,0,0,1-.424-.2c-.1,0-.2,0-.3,0h-.113a.712.712,0,0,0,.466.518A.391.391,0,0,1,48.735,387.915Z" transform="translate(-45.443 -365.681)" fill="#fff"/>
  </g>
</svg>
