<svg xmlns="http://www.w3.org/2000/svg" width="22.5" height="18" viewBox="0 0 22.5 18">
  <g id="bx-money" transform="translate(-3 -6)">
    <path id="Tracé_3964" data-name="Tracé 3964" d="M24.375,6H4.125A1.125,1.125,0,0,0,3,7.125v15.75A1.125,1.125,0,0,0,4.125,24h20.25A1.125,1.125,0,0,0,25.5,22.875V7.125A1.125,1.125,0,0,0,24.375,6ZM23.25,18.375a3.375,3.375,0,0,0-3.375,3.375H8.625A3.375,3.375,0,0,0,5.25,18.375v-6.75A3.375,3.375,0,0,0,8.625,8.25h11.25a3.375,3.375,0,0,0,3.375,3.375Z" transform="translate(0)"/>
    <path id="Tracé_3965" data-name="Tracé 3965" d="M16.5,12A4.5,4.5,0,1,0,21,16.5,4.5,4.5,0,0,0,16.5,12Zm0,6.75a2.25,2.25,0,1,1,2.25-2.25A2.252,2.252,0,0,1,16.5,18.75Z" transform="translate(-2.25 -1.5)"/>
  </g>
</svg>
