<svg xmlns="http://www.w3.org/2000/svg" xmlns:xlink="http://www.w3.org/1999/xlink" width="23.961" height="18.469" viewBox="0 0 23.961 18.469">
  <defs>
    <clipPath id="clip-path">
      <rect id="Rectangle_2908" data-name="Rectangle 2908" width="22.389" height="16.217" fill="#bababa"/>
    </clipPath>
  </defs>
  <g id="Groupe_3803" data-name="Groupe 3803" transform="matrix(0.995, -0.105, 0.105, 0.995, 0, 2.34)">
    <g id="Groupe_3803-2" data-name="Groupe 3803" clip-path="url(#clip-path)">
      <path id="Tracé_3966" data-name="Tracé 3966" d="M11.2,16.217H2.457A2.263,2.263,0,0,1,0,13.775Q0,8.048,0,2.322A2.245,2.245,0,0,1,1.88.032,2.953,2.953,0,0,1,2.4,0q8.786,0,17.572,0a2.258,2.258,0,0,1,2.415,2.427q0,5.683,0,11.365a2.26,2.26,0,0,1-2.418,2.424q-4.386,0-8.771,0m-.936-1.866c0-.662-.031-1.284.01-1.9.032-.494-.025-.871-.605-.946a.287.287,0,0,1-.079-.036,3.718,3.718,0,0,1,.433-6.891c.2-.065.254-.148.246-.344-.015-.388,0-.777,0-1.165V1.9a.544.544,0,0,0-.093-.025q-3.934,0-7.867,0c-.3,0-.432.147-.434.459,0,.66,0,1.321,0,1.981,0,.152.049.212.2.263a3.7,3.7,0,0,1,.025,7.064.265.265,0,0,0-.222.3c.01.612,0,1.224,0,1.836,0,.473.1.576.583.576h7.813m1.866-.026a.774.774,0,0,0,.117.023q3.92,0,7.841,0c.294,0,.434-.154.436-.462,0-.651-.006-1.3.006-1.953,0-.182-.064-.243-.229-.3a3.7,3.7,0,0,1-.014-7.045.3.3,0,0,0,.243-.349c-.012-.592,0-1.185,0-1.778,0-.491-.106-.6-.6-.6H12.436c-.094,0-.188.008-.307.013,0,.8.006,1.589,0,2.373,0,.187.054.26.238.32a3.722,3.722,0,0,1-.012,7.078c-.125.043-.227.064-.225.24.009.805,0,1.611,0,2.435" transform="translate(-0.001 0)" fill="#bababa"/>
    </g>
  </g>
</svg>
