<svg xmlns="http://www.w3.org/2000/svg" width="20.285" height="21.845" viewBox="0 0 20.285 21.845">
  <path id="calendar" d="M1.56,20.286H5.071V16.775H1.56Zm4.291,0h3.9V16.775h-3.9v3.511ZM1.56,15.995H5.071v-3.9H1.56Zm4.291,0h3.9v-3.9h-3.9v3.9ZM1.56,11.313H5.071V7.8H1.56Zm8.973,8.973h3.9V16.775h-3.9ZM5.852,11.313h3.9V7.8h-3.9Zm9.363,8.973h3.511V16.775H15.214Zm-4.681-4.291h3.9v-3.9h-3.9v3.9ZM6.242,5.461V1.95a.4.4,0,0,0-.39-.39h-.78a.4.4,0,0,0-.39.39V5.461a.4.4,0,0,0,.39.39h.78a.4.4,0,0,0,.39-.39Zm8.973,10.533h3.511v-3.9H15.214v3.9Zm-4.682-4.681h3.9V7.8h-3.9Zm4.681,0h3.511V7.8H15.214Zm.39-5.852V1.95a.4.4,0,0,0-.39-.39h-.78a.395.395,0,0,0-.39.39V5.461a.4.4,0,0,0,.39.39h.78a.4.4,0,0,0,.39-.39Zm4.681-.78v15.6a1.581,1.581,0,0,1-1.56,1.56H1.56a1.5,1.5,0,0,1-1.1-.463A1.5,1.5,0,0,1,0,20.285V4.681a1.5,1.5,0,0,1,.463-1.1,1.5,1.5,0,0,1,1.1-.463H3.12V1.95A1.878,1.878,0,0,1,3.693.573,1.879,1.879,0,0,1,5.071,0h.78A1.878,1.878,0,0,1,7.229.573,1.878,1.878,0,0,1,7.8,1.95V3.121h4.681V1.95A1.878,1.878,0,0,1,13.056.573,1.878,1.878,0,0,1,14.433,0h.78a1.878,1.878,0,0,1,1.377.573,1.878,1.878,0,0,1,.573,1.377V3.121h1.56a1.5,1.5,0,0,1,1.1.463,1.5,1.5,0,0,1,.463,1.1Z" fill="#fff"/>
</svg>
