<svg xmlns="http://www.w3.org/2000/svg" width="30.998" height="30.985" viewBox="0 0 30.998 30.985">
  <path id="cashapp" d="M30.468,4.482A6.587,6.587,0,0,0,26.529.542C24.837,0,23.3,0,20.174,0H10.8C7.7,0,6.135,0,4.469.517A6.587,6.587,0,0,0,.53,4.469C0,6.148,0,7.7,0,10.8v9.39c0,3.113,0,4.65.517,6.329a6.587,6.587,0,0,0,3.939,3.939c1.679.53,3.229.53,6.329.53h9.4c3.113,0,4.663,0,6.329-.517a6.587,6.587,0,0,0,3.952-3.952c.53-1.679.53-3.229.53-6.329V10.823c0-3.113,0-4.663-.53-6.342ZM22.5,10.462l-1.2,1.2a.646.646,0,0,1-.865.013,6.458,6.458,0,0,0-4.159-1.524c-1.253,0-2.506.413-2.506,1.563s1.343,1.55,2.893,2.131c2.712.9,4.96,2.041,4.96,4.7,0,2.893-2.247,4.882-5.915,5.1L15.37,25.2a.633.633,0,0,1-.62.5H12.438l-.116-.013a.646.646,0,0,1-.491-.762l.362-1.64a8.447,8.447,0,0,1-3.72-2.028v-.013a.62.62,0,0,1,0-.878l1.292-1.253a.633.633,0,0,1,.865,0,6.246,6.246,0,0,0,4.378,1.7c1.679,0,2.8-.71,2.8-1.834s-1.137-1.421-3.281-2.222c-2.273-.814-4.43-1.963-4.43-4.65,0-3.126,2.6-4.65,5.67-4.792l.323-1.589a.62.62,0,0,1,.62-.491h2.3l.129.013a.618.618,0,0,1,.478.736L19.27,7.762a9.693,9.693,0,0,1,3.2,1.8l.026.026a.616.616,0,0,1,0,.878Z" fill="#60b89c"/>
</svg>
