<svg id="football" xmlns="http://www.w3.org/2000/svg" width="33.75" height="33.75" viewBox="0 0 33.75 33.75">
  <path id="Tracé_3974" data-name="Tracé 3974" d="M29.932,6.068a16.875,16.875,0,1,0,0,23.865,16.874,16.874,0,0,0,0-23.865Zm-.314,3.061a14.546,14.546,0,0,1,2.995,8.294l-4.65-3.5ZM22.221,4l-4.1,3.049-4.3-3.061A14.635,14.635,0,0,1,22.22,4ZM8.213,13.925,3.386,17.461a14.548,14.548,0,0,1,3.03-8.377ZM6.061,26.438h5.58l1.76,5.446a14.69,14.69,0,0,1-7.34-5.446Zm9.9,6.045-2.681-8.3H4.75a14.5,14.5,0,0,1-1.218-4.045l7.38-5.407L8.124,7.223a14.691,14.691,0,0,1,3.214-2.24l6.8,4.847,6.521-4.845A14.69,14.69,0,0,1,27.89,7.238l-2.589,7.5,7.168,5.394a14.5,14.5,0,0,1-1.219,4.057H23.028l-2.956,8.29a14.63,14.63,0,0,1-4.112.005Zm6.722-.626,1.933-5.419h5.324a14.693,14.693,0,0,1-7.257,5.419Z" transform="translate(-1.125 -1.125)" fill="#3088b7"/>
  <path id="Tracé_3975" data-name="Tracé 3975" d="M24.385,15.71,18.13,11.166,11.876,15.71l2.389,7.353H22Zm-4.024,5.1H15.9L14.52,16.57l3.61-2.623,3.61,2.623Z" transform="translate(-1.125 -1.125)" fill="#3088b7"/>
</svg>
