<svg xmlns="http://www.w3.org/2000/svg" width="24" height="24" viewBox="0 0 24 24">
  <path id="football" d="M15.375,3.375a12,12,0,1,0,12,12A12.014,12.014,0,0,0,15.375,3.375Zm8.25,17.538H21.016a.462.462,0,0,1-.4-.231l-.931-1.6a.462.462,0,0,1-.049-.346l.857-3.457a.462.462,0,0,1,.268-.314l1.621-.687a.462.462,0,0,1,.481.075l2.4,2.067a.462.462,0,0,1,.155.418,10.082,10.082,0,0,1-1.4,3.847A.462.462,0,0,1,23.625,20.913ZM8.366,14.286l1.621.687a.462.462,0,0,1,.268.314l.857,3.457a.462.462,0,0,1-.049.346l-.931,1.593a.462.462,0,0,1-.4.231H7.125a.462.462,0,0,1-.394-.22,10.082,10.082,0,0,1-1.4-3.847.462.462,0,0,1,.155-.418l2.4-2.067a.462.462,0,0,1,.479-.075ZM23.19,9.253l-1.043,2.965a.462.462,0,0,1-.253.272l-1.707.723a.462.462,0,0,1-.477-.071l-3.245-2.722a.462.462,0,0,1-.167-.352V8.13a.462.462,0,0,1,.205-.384L18.974,6.1a.462.462,0,0,1,.442-.039A10.207,10.207,0,0,1,23.106,8.8a.462.462,0,0,1,.085.455ZM11.775,6.1l2.471,1.647a.462.462,0,0,1,.205.384v1.936a.462.462,0,0,1-.165.354L11.04,13.143a.462.462,0,0,1-.477.071L8.856,12.49a.462.462,0,0,1-.255-.272L7.558,9.254A.462.462,0,0,1,7.644,8.8,10.207,10.207,0,0,1,11.336,6.06a.462.462,0,0,1,.438.041Zm1,18.892-1.138-2.867a.462.462,0,0,1,.03-.4l.875-1.5a.462.462,0,0,1,.4-.231h4.871a.462.462,0,0,1,.4.231l.875,1.5a.462.462,0,0,1,.03.4l-1.13,2.865a.462.462,0,0,1-.328.281,10.187,10.187,0,0,1-4.558,0,.462.462,0,0,1-.326-.28Z" transform="translate(-3.375 -3.375)" fill="#bababa"/>
</svg>
