<svg xmlns="http://www.w3.org/2000/svg" width="20.732" height="20.734" viewBox="0 0 20.732 20.734">
  <path id="history" d="M6.511,14.254v-.648l2.652-3.584A1.277,1.277,0,0,1,10.4,9.071a1.268,1.268,0,0,1,.77.253,1.24,1.24,0,0,1,.466.658l3.948,4.92v.648h-.648l-4.555-3.665L7.16,14.254H6.512ZM10.4,20.734a10.173,10.173,0,0,1-4-.8A10.364,10.364,0,0,1,3.069,17.7l1.842-1.822A7.74,7.74,0,0,0,7.4,17.545,7.81,7.81,0,0,0,14.3,17.1a7.719,7.719,0,0,0,2.835-2.835,7.614,7.614,0,0,0,1.043-3.9,7.611,7.611,0,0,0-1.043-3.9A7.725,7.725,0,0,0,14.3,3.634a7.6,7.6,0,0,0-3.9-1.042,7.443,7.443,0,0,0-3.543.871A8.046,8.046,0,0,0,4.122,5.811L5.216,6.9a.84.84,0,0,1-.253.617.817.817,0,0,1-.6.253H.9a.84.84,0,0,1-.617-.253A.84.84,0,0,1,.032,6.9V3.462a.817.817,0,0,1,.253-.6A.84.84,0,0,1,.9,2.612L2.279,3.969A10.306,10.306,0,0,1,5.842,1.063,10.046,10.046,0,0,1,10.4,0a10.171,10.171,0,0,1,4.029.82,10.143,10.143,0,0,1,5.517,5.517,10.311,10.311,0,0,1,0,8.058,10.143,10.143,0,0,1-5.517,5.517,10.171,10.171,0,0,1-4.029.82Z" transform="translate(-0.032)" fill="#bababa"/>
</svg>
