<svg xmlns="http://www.w3.org/2000/svg" width="20.125" height="23" viewBox="0 0 20.125 23">
  <path id="invoice" d="M18.7,21.563,17.265,23l-1.437-1.437L14.39,23l-1.437-1.437L11.515,23l-1.437-1.437L8.64,23,7.2,21.563,5.765,23,4.327,21.563,2.89,23,1.452,21.563.015,23V1.438A1.381,1.381,0,0,1,.442.427,1.381,1.381,0,0,1,1.452,0H18.7a1.381,1.381,0,0,1,1.011.427,1.381,1.381,0,0,1,.427,1.011V23ZM3.609,18.688H7.921a.719.719,0,0,0,0-1.437H3.609a.719.719,0,0,0,0,1.438ZM17.265,3.594a.729.729,0,0,0-.719-.719H3.609a.729.729,0,0,0-.719.719v8.625a.729.729,0,0,0,.719.719h7.906v2.156a.729.729,0,0,0,.719.719h4.312a.729.729,0,0,0,.719-.719Zm-4.312,9.344h2.875v1.438H12.953Zm0-2.875h2.875V11.5H12.953Zm0-2.875h2.875V8.625H12.953Zm0-2.875h2.875V5.75H12.953Zm-8.625,5.75h7.188V11.5H4.327Zm0-2.875h7.188V8.625H4.327Zm0-2.875h7.188V5.75H4.327Z" transform="translate(-0.015)" fill="#bababa"/>
</svg>
