<svg xmlns="http://www.w3.org/2000/svg" width="23.124" height="22.865" viewBox="0 0 23.124 22.865">
  <g id="key-solid-badged" transform="translate(-1.626 -1)">
    <path id="Tracé_3992" data-name="Tracé 3992" d="M16.7,12.349l.416-.416a3.464,3.464,0,0,0,.014-4.9L13.463,3.39a3.464,3.464,0,0,0-4.9,0L2.64,9.314a3.464,3.464,0,0,0,0,4.9l3.645,3.645a3.464,3.464,0,0,0,4.9,0l.312-.312L12.95,19.07h2.383v2.079h2.557v1.129L19.9,24.287h4.157V19.749ZM10.768,7.783,6.992,11.566a.693.693,0,0,1-.977,0l-.277-.277a.693.693,0,0,1,0-.977l3.769-3.79a.693.693,0,0,1,.977,0l.277.277a.693.693,0,0,1,.007.984ZM22.671,22.9H20.5l-1.226-1.219v-1.94H16.72V17.664H13.525l-1.053-1.116,3.27-3.222,6.929,7Z" transform="translate(0 -0.423)" fill="#bababa"/>
    <path id="Tracé_3993" data-name="Tracé 3993" d="M31.929,4.464A3.464,3.464,0,1,1,28.464,1a3.464,3.464,0,0,1,3.464,3.464Z" transform="translate(-7.179)" fill="#bababa"/>
  </g>
</svg>
