<svg xmlns="http://www.w3.org/2000/svg" width="25.079" height="21.221" viewBox="0 0 25.079 21.221">
  <g id="log-out-outline" transform="translate(-3.375 -5.625)">
    <path id="Tracé_3956" data-name="Tracé 3956" d="M16.4,26.846H6.751A3.38,3.38,0,0,1,3.375,23.47V9A3.38,3.38,0,0,1,6.751,5.625h9.164c1.821,0,3.858,1.444,3.858,3.376v2.412a.965.965,0,0,1-1.929,0V9c0-.69-1.01-1.447-1.929-1.447H6.751A1.449,1.449,0,0,0,5.3,9V23.47a1.449,1.449,0,0,0,1.447,1.447H16.4a1.449,1.449,0,0,0,1.447-1.447V21.058a.965.965,0,0,1,1.929,0V23.47A3.38,3.38,0,0,1,16.4,26.846Z" transform="translate(0 0)" fill="#bababa"/>
    <path id="Tracé_3957" data-name="Tracé 3957" d="M25.715,22.825a.965.965,0,0,1-.682-1.647l4.141-4.141L25.033,12.9A.965.965,0,1,1,26.4,11.533l4.823,4.823a.965.965,0,0,1,0,1.364L26.4,22.542A.962.962,0,0,1,25.715,22.825Z" transform="translate(-3.048 -0.802)" fill="#bababa"/>
    <path id="Tracé_3958" data-name="Tracé 3958" d="M27.648,18.8H12.215a.965.965,0,0,1,0-1.929H27.648a.965.965,0,0,1,0,1.929Z" transform="translate(-1.123 -1.604)" fill="#bababa"/>
  </g>
</svg>
