<svg id="money" xmlns="http://www.w3.org/2000/svg" width="24.358" height="20.879" viewBox="0 0 24.358 20.879">
  <path id="Tracé_3941" data-name="Tracé 3941" d="M2.25,24.75H26.608v1.74H2.25Z" transform="translate(-2.25 -9.091)" fill="#f3f5f7"/>
  <path id="Tracé_3942" data-name="Tracé 3942" d="M2.25,29.25H26.608v1.74H2.25Z" transform="translate(-2.25 -10.111)" fill="#f3f5f7"/>
  <path id="Tracé_3943" data-name="Tracé 3943" d="M26.49,11.25a1.74,1.74,0,1,0,1.74,1.74A1.74,1.74,0,0,0,26.49,11.25Z" transform="translate(-7.351 -6.03)" fill="#f3f5f7"/>
  <path id="Tracé_3944" data-name="Tracé 3944" d="M16.98,15.96a3.48,3.48,0,1,1,3.48-3.48A3.48,3.48,0,0,1,16.98,15.96Zm0-5.22a1.74,1.74,0,1,0,1.74,1.74A1.74,1.74,0,0,0,16.98,10.74Z" transform="translate(-4.801 -5.52)" fill="#f3f5f7"/>
  <path id="Tracé_3945" data-name="Tracé 3945" d="M8.49,11.25a1.74,1.74,0,1,0,1.74,1.74A1.74,1.74,0,0,0,8.49,11.25Z" transform="translate(-3.27 -6.03)" fill="#f3f5f7"/>
  <path id="Tracé_3946" data-name="Tracé 3946" d="M24.869,18.419H3.99a1.745,1.745,0,0,1-1.74-1.74V6.24A1.745,1.745,0,0,1,3.99,4.5H24.869a1.745,1.745,0,0,1,1.74,1.74V16.679a1.742,1.742,0,0,1-1.74,1.74Zm0-12.179H3.99V16.679H24.869Z" transform="translate(-2.25 -4.5)" fill="#f3f5f7"/>
</svg>
