<svg xmlns="http://www.w3.org/2000/svg" width="22.162" height="23.085" viewBox="0 0 22.162 23.085">
  <g id="notification-solid-badged" transform="translate(-3.05 -1)">
    <path id="Tracé_3866" data-name="Tracé 3866" d="M17.179,33.582A1.852,1.852,0,0,0,18.969,32H15.32a1.852,1.852,0,0,0,1.859,1.582Z" transform="translate(-3.759 -9.497)" fill="#707070"/>
    <path id="Tracé_3867" data-name="Tracé 3867" d="M23.721,20.056l-.236-.208a9.968,9.968,0,0,1-1.741-2.032,8.761,8.761,0,0,1-.936-3.336V11.053A7.574,7.574,0,0,0,20.7,9.811a5.2,5.2,0,0,1-4.155-5.105V4.269a7.332,7.332,0,0,0-2.3-.694V2.7a.926.926,0,1,0-1.852,0V3.61a7.5,7.5,0,0,0-6.451,7.443v3.427A8.761,8.761,0,0,1,5,17.816a9.989,9.989,0,0,1-1.713,2.032l-.236.208v1.956H23.721Z" transform="translate(0 -0.237)" fill="#707070"/>
    <path id="Tracé_3868" data-name="Tracé 3868" d="M31.936,4.468A3.468,3.468,0,1,1,28.468,1a3.468,3.468,0,0,1,3.468,3.468Z" transform="translate(-6.724 0)" fill="#f28022"/>
  </g>
</svg>
