<svg id="Composant_40_1" data-name="Composant 40 – 1" xmlns="http://www.w3.org/2000/svg" width="32" height="32" viewBox="0 0 32 32">
  <rect id="Rectangle_2905" data-name="Rectangle 2905" width="32" height="32" rx="11" fill="#f5f8ff"/>
  <g id="Groupe_791" data-name="Groupe 791" transform="translate(7 18.358) rotate(-90)">
    <path id="more" d="M2.153,0a2.074,2.074,0,0,1,1.52.633,2.1,2.1,0,0,1,.633,1.545,2.1,2.1,0,0,1-.633,1.545,2.074,2.074,0,0,1-1.52.633,2.074,2.074,0,0,1-1.52-.633A2.1,2.1,0,0,1,0,2.179,2.105,2.105,0,0,1,.633.633,2.072,2.072,0,0,1,2.154,0ZM15.126,0a2.074,2.074,0,0,1,1.52.633,2.1,2.1,0,0,1,.633,1.545,2.1,2.1,0,0,1-.633,1.545,2.141,2.141,0,0,1-3.041,0,2.1,2.1,0,0,1-.633-1.545A2.105,2.105,0,0,1,13.606.633,2.072,2.072,0,0,1,15.126,0ZM8.64,0a2.074,2.074,0,0,1,1.52.633,2.1,2.1,0,0,1,.633,1.545,2.1,2.1,0,0,1-.633,1.545,2.141,2.141,0,0,1-3.041,0,2.1,2.1,0,0,1-.633-1.545A2.105,2.105,0,0,1,7.12.633,2.072,2.072,0,0,1,8.64,0Z" transform="translate(4.358) rotate(90)"/>
  </g>
</svg>
