<svg xmlns="http://www.w3.org/2000/svg" width="31.5" height="31.5" viewBox="0 0 31.5 31.5">
  <g id="time-plot" transform="translate(-2.25 -2.25)">
    <path id="Tracé_3986" data-name="Tracé 3986" d="M26.534,14.625l-2.909-2.909V6.75h2.25v4.034l2.25,2.25Z" fill="#3088b7"/>
    <path id="Tracé_3987" data-name="Tracé 3987" d="M24.75,20.25a9,9,0,1,1,9-9,9,9,0,0,1-9,9Zm0-15.75a6.75,6.75,0,1,0,6.75,6.75A6.75,6.75,0,0,0,24.75,4.5Z" fill="#3088b7"/>
    <path id="Tracé_3988" data-name="Tracé 3988" d="M9.709,20.25,17.584,27H33.75V24.75H18.416L10.541,18H4.5V2.25H2.25V31.5A2.252,2.252,0,0,0,4.5,33.75H33.75V31.5H4.5V20.25Z" fill="#3088b7"/>
  </g>
</svg>
