<svg xmlns="http://www.w3.org/2000/svg" width="25.714" height="24" viewBox="0 0 25.714 24">
  <g id="user-admin" transform="translate(-2.25 -2.25)">
    <path id="Tracé_3989" data-name="Tracé 3989" d="M11.625,3.964A4.286,4.286,0,1,1,7.339,8.25a4.286,4.286,0,0,1,4.286-4.286m0-1.714a6,6,0,1,0,6,6A6,6,0,0,0,11.625,2.25Z" transform="translate(-0.804)" fill="#bababa"/>
    <path id="Tracé_3990" data-name="Tracé 3990" d="M19.393,30.536H17.679V26.25a4.286,4.286,0,0,0-4.286-4.286H8.25A4.286,4.286,0,0,0,3.964,26.25v4.286H2.25V26.25a6,6,0,0,1,6-6h5.143a6,6,0,0,1,6,6Z" transform="translate(0 -4.286)" fill="#bababa"/>
    <path id="Tracé_3991" data-name="Tracé 3991" d="M27.054,16.706l-2.22-2.22-1.208,1.208,3.429,3.429,6-6-1.208-1.208Z" transform="translate(-5.089 -2.301)" fill="#bababa"/>
  </g>
</svg>
