<svg id="user-online" xmlns="http://www.w3.org/2000/svg" width="31.5" height="31.5" viewBox="0 0 31.5 31.5">
  <path id="Tracé_3971" data-name="Tracé 3971" d="M33.75,18a4.5,4.5,0,1,1-4.5-4.5A4.5,4.5,0,0,1,33.75,18Z" transform="translate(-2.25 -2.25)" fill="#3088b7"/>
  <path id="Tracé_3972" data-name="Tracé 3972" d="M24.75,33.75H22.5V28.125A5.625,5.625,0,0,0,16.875,22.5h-6.75A5.625,5.625,0,0,0,4.5,28.125V33.75H2.25V28.125a7.875,7.875,0,0,1,7.875-7.875h6.75a7.875,7.875,0,0,1,7.875,7.875Z" transform="translate(-2.25 -2.25)" fill="#3088b7"/>
  <path id="Tracé_3973" data-name="Tracé 3973" d="M13.5,4.5a5.625,5.625,0,1,1-5.625,5.625A5.625,5.625,0,0,1,13.5,4.5m0-2.25a7.875,7.875,0,1,0,7.875,7.875A7.875,7.875,0,0,0,13.5,2.25Z" transform="translate(-2.25 -2.25)" fill="#3088b7"/>
</svg>
