<svg xmlns="http://www.w3.org/2000/svg" width="21.606" height="21.606" viewBox="0 0 21.606 21.606">
  <g id="user-multiple" transform="translate(-2.25 -2.25)">
    <path id="Tracé_3952" data-name="Tracé 3952" d="M31.276,29.51H29.733V25.651a3.863,3.863,0,0,0-3.858-3.858V20.25a5.408,5.408,0,0,1,5.4,5.4Z" transform="translate(-7.421 -5.654)" fill="#bababa"/>
    <path id="Tracé_3953" data-name="Tracé 3953" d="M17.683,29.51H16.139V25.651a3.863,3.863,0,0,0-3.858-3.858H7.651a3.863,3.863,0,0,0-3.858,3.858V29.51H2.25V25.651a5.408,5.408,0,0,1,5.4-5.4h4.63a5.408,5.408,0,0,1,5.4,5.4Z" transform="translate(0 -5.654)" fill="#bababa"/>
    <path id="Tracé_3954" data-name="Tracé 3954" d="M22.5,2.25V3.793a3.858,3.858,0,0,1,0,7.716v1.543a5.4,5.4,0,1,0,0-10.8Z" transform="translate(-6.361)" fill="#bababa"/>
    <path id="Tracé_3955" data-name="Tracé 3955" d="M11.026,3.793A3.858,3.858,0,1,1,7.168,7.651a3.858,3.858,0,0,1,3.858-3.858m0-1.543a5.4,5.4,0,1,0,5.4,5.4A5.4,5.4,0,0,0,11.026,2.25Z" transform="translate(-1.06 0)" fill="#bababa"/>
  </g>
</svg>
