<svg xmlns="http://www.w3.org/2000/svg" width="26.604" height="15.962" viewBox="0 0 26.604 15.962">
  <path id="add-to-list" d="M25.806,13.851H21.283V9.328c0-.8-.532-.8-1.33-.8s-1.33,0-1.33.8v4.523H14.1c-.8,0-.8.532-.8,1.33s0,1.33.8,1.33h4.523v4.523c0,.8.532.8,1.33.8s1.33,0,1.33-.8V16.511h4.523c.8,0,.8-.532.8-1.33S26.6,13.851,25.806,13.851Zm-15.962,0H.8c-.8,0-.8.532-.8,1.33s0,1.33.8,1.33H9.843c.8,0,.8-.532.8-1.33s0-1.33-.8-1.33Zm0,6.651H.8c-.8,0-.8.532-.8,1.33s0,1.33.8,1.33H9.843c.8,0,.8-.532.8-1.33s0-1.33-.8-1.33Zm0-13.3H.8C0,7.2,0,7.732,0,8.53S0,9.86.8,9.86H9.843c.8,0,.8-.532.8-1.33s0-1.33-.8-1.33Z" transform="translate(0 -7.2)" fill="#004476"/>
</svg>
