<svg xmlns="http://www.w3.org/2000/svg" width="30" height="22.5" viewBox="0 0 30 22.5">
  <path id="Tracé_322" data-name="Tracé 322" d="M28.5,12h-3v4.5H21v3h4.5V24h3V19.5H33v-3H28.5ZM6,12a5.869,5.869,0,0,0,6,6,5.869,5.869,0,0,0,6-6,5.869,5.869,0,0,0-6-6A5.869,5.869,0,0,0,6,12Zm9,0a2.87,2.87,0,0,1-3,3,2.87,2.87,0,0,1-3-3,2.87,2.87,0,0,1,3-3A2.87,2.87,0,0,1,15,12ZM6,27a4.505,4.505,0,0,1,4.5-4.5h3A4.505,4.505,0,0,1,18,27v1.5h3V27a7.508,7.508,0,0,0-7.5-7.5h-3A7.508,7.508,0,0,0,3,27v1.5H6Z" transform="translate(-3 -6)" fill="#004476"/>
</svg>
