<svg xmlns="http://www.w3.org/2000/svg" width="18" height="22.5" viewBox="0 0 18 22.5">
  <g id="bx-user-plus" transform="translate(-8 -6)">
    <path id="Tracé_321" data-name="Tracé 321" d="M9,12a2.87,2.87,0,0,0,3,3,2.87,2.87,0,0,0,3-3,2.87,2.87,0,0,0-3-3A2.87,2.87,0,0,0,9,12Z" fill="none"/>
    <path id="Tracé_322" data-name="Tracé 322" d="M6,12a5.869,5.869,0,0,0,6,6,5.869,5.869,0,0,0,6-6,5.869,5.869,0,0,0-6-6A5.869,5.869,0,0,0,6,12Zm9,0a2.87,2.87,0,0,1-3,3,2.87,2.87,0,0,1-3-3,2.87,2.87,0,0,1,3-3A2.87,2.87,0,0,1,15,12ZM6,27a4.505,4.505,0,0,1,4.5-4.5h3A4.505,4.505,0,0,1,18,27v1.5h3V27a7.508,7.508,0,0,0-7.5-7.5h-3A7.508,7.508,0,0,0,3,27v1.5H6Z" transform="translate(5)" fill="#fff"/>
  </g>
</svg>
