<svg xmlns="http://www.w3.org/2000/svg" width="20.719" height="20.719" viewBox="0 0 20.719 20.719">
  <g id="calendar-next" transform="translate(-4.5 -4.5)">
    <path id="Tracé_318" data-name="Tracé 318" d="M16.209,23.006l5.18-2.99-5.18-2.99v1.839H11.662v2.3h4.547Z" transform="translate(-1.666 -2.914)" fill="#004476"/>
    <path id="Tracé_319" data-name="Tracé 319" d="M11.651,10.5a1.151,1.151,0,0,0,0,2.3H20.86a1.151,1.151,0,1,0,0-2.3Z" transform="translate(-1.396 -1.396)" fill="#004476"/>
    <path id="Tracé_320" data-name="Tracé 320" d="M7.953,4.5A3.453,3.453,0,0,0,4.5,7.953V21.766a3.453,3.453,0,0,0,3.453,3.453H21.766a3.453,3.453,0,0,0,3.453-3.453V7.953A3.453,3.453,0,0,0,21.766,4.5ZM21.766,6.8H7.953A1.151,1.151,0,0,0,6.8,7.953V21.766a1.151,1.151,0,0,0,1.151,1.151H21.766a1.151,1.151,0,0,0,1.151-1.151V7.953A1.151,1.151,0,0,0,21.766,6.8Z" transform="translate(0)" fill="#004476" fill-rule="evenodd"/>
  </g>
</svg>
