<svg id="Groupe_977" data-name="Groupe 977" xmlns="http://www.w3.org/2000/svg" width="34.143" height="34.143" viewBox="0 0 34.143 34.143">
  <g id="check-circle" transform="translate(0)">
    <path id="Tracé_336" data-name="Tracé 336" d="M17.071,32.009A14.937,14.937,0,1,0,2.134,17.071,14.937,14.937,0,0,0,17.071,32.009Zm0,2.134A17.071,17.071,0,1,0,0,17.071,17.071,17.071,0,0,0,17.071,34.143Z" fill="#7ad751" fill-rule="evenodd"/>
    <path id="Tracé_337" data-name="Tracé 337" d="M23.883,11.156A1.6,1.6,0,1,1,26.169,13.4L17.65,24.046a1.6,1.6,0,0,1-2.3.043L9.7,18.442a1.6,1.6,0,1,1,2.262-2.262l4.469,4.466L23.843,11.2a.5.5,0,0,1,.043-.046Z" transform="translate(-0.474 -0.551)" fill="#7ad751" fill-rule="evenodd"/>
  </g>
</svg>
