<svg id="Groupe_132" data-name="Groupe 132" xmlns="http://www.w3.org/2000/svg" width="26.026" height="26.029" viewBox="0 0 26.026 26.029">
  <path id="Tracé_120" data-name="Tracé 120" d="M10.78,47.651a3.1,3.1,0,0,0,0,6.2,3.1,3.1,0,0,0,0-6.2" transform="translate(2.997 -47.651)" fill="#656565"/>
  <path id="Tracé_121" data-name="Tracé 121" d="M14.594,52.112a4.555,4.555,0,0,1-3.387,1.525,4.654,4.654,0,0,1-3.434-1.525,4.537,4.537,0,0,0-1.19,3.051v.762a.761.761,0,0,0,.761.763h7.676a.764.764,0,0,0,.765-.763v-.762a4.544,4.544,0,0,0-1.19-3.051" transform="translate(2.569 -45.909)" fill="#656565"/>
  <path id="Tracé_122" data-name="Tracé 122" d="M7.368,66.91l-3.886-7.79a1.524,1.524,0,0,0-2.041-.687l-1.016.5a.764.764,0,0,0-.343,1.025l4.576,9.15a.762.762,0,0,0,1.021.343l1-.5a1.524,1.524,0,0,0,.688-2.047" transform="translate(0 -43.504)" fill="#656565"/>
  <path id="Tracé_123" data-name="Tracé 123" d="M24.134,56.868a1.52,1.52,0,0,0-2.013.2l-4.168,5.124a1.844,1.844,0,0,1-1.129.488H13.27a.763.763,0,1,1,0-1.525H16.32a1.525,1.525,0,0,0,0-3.051h-4c-.38,0-.569-.241-.869-.5a5.307,5.307,0,0,0-4.733-1.158A5.55,5.55,0,0,0,4.38,57.611l-.024-.018-1.1.97,4.335,8.691h8.73a4.6,4.6,0,0,0,3.661-1.83l4.473-6.406a1.537,1.537,0,0,0-.32-2.151" transform="translate(1.27 -44.275)" fill="#656565"/>
</svg>
