<svg xmlns="http://www.w3.org/2000/svg" width="22.286" height="28.947" viewBox="0 0 22.286 28.947">
  <path id="Tracé_408" data-name="Tracé 408" d="M21.9,102.52l-5.576-2.26a5.822,5.822,0,0,0-3.36-7.334,5.438,5.438,0,0,0-7.01,3.516,6.012,6.012,0,0,0,0,3.818L.382,102.52A.626.626,0,0,0,0,103.1v13.537a.629.629,0,0,0,.383.585L10.925,121.5a.6.6,0,0,0,.217.041.553.553,0,0,0,.214-.047l0,.005L21.9,117.227a.629.629,0,0,0,.383-.585V103.1a.629.629,0,0,0-.383-.585m-1.877.585-1.946.789-3.226-1.3a5.712,5.712,0,0,0,.951-1.2Zm-6.353.362,2.744,1.1-1.548.628-2.841-1.162a5.293,5.293,0,0,0,1.646-.57m1.867,2.805,2.015-.818v2.616l-.337-.23a.582.582,0,0,0-.764.1l-.914,1.014Zm-4.4-12.4a4.5,4.5,0,0,1,0,8.99,4.5,4.5,0,0,1,0-8.99m-4.32,8.035-.8-.328.459-.186a5.939,5.939,0,0,0,.343.516Zm-2.457.344,8.847,3.619-2.069.839-8.884-3.6ZM1.2,116.211V104.022l9.343,3.79V120ZM11.743,120V107.812l2.6-1.054v3.775a.626.626,0,0,0,.378.583.545.545,0,0,0,.221.044.585.585,0,0,0,.437-.2l1.606-1.784.845.574a.585.585,0,0,0,.83-.186.644.644,0,0,0,.1-.34v-4.259l2.331-.946v12.189Z" transform="translate(0 -92.598)" fill="#004476"/>
</svg>
