<svg xmlns="http://www.w3.org/2000/svg" width="23.344" height="30.321" viewBox="0 0 23.344 30.321">
  <path id="Tracé_124" data-name="Tracé 124" d="M22.943,102.991,17.1,100.624a6.1,6.1,0,0,0-3.519-7.682,5.7,5.7,0,0,0-7.343,3.683,6.3,6.3,0,0,0,0,4L.4,102.991a.656.656,0,0,0-.4.613v14.18a.659.659,0,0,0,.4.613l11.043,4.48a.625.625,0,0,0,.228.043.58.58,0,0,0,.224-.049l0,.005,11.044-4.48a.659.659,0,0,0,.4-.613V103.6a.659.659,0,0,0-.4-.613m-1.966.613-2.038.827-3.38-1.36a5.983,5.983,0,0,0,1-1.259Zm-6.654.379,2.874,1.156-1.622.658L12.6,104.579a5.545,5.545,0,0,0,1.724-.6m1.956,2.938,2.111-.857V108.8l-.353-.241a.609.609,0,0,0-.8.1l-.957,1.062ZM11.671,93.932a4.713,4.713,0,0,1,0,9.417,4.713,4.713,0,0,1,0-9.417m-4.526,8.417-.841-.344.481-.195a6.223,6.223,0,0,0,.36.54Zm-2.574.36,9.267,3.791-2.168.878L2.366,103.6ZM1.256,117.333V104.565l9.787,3.97V121.3ZM12.3,121.3V108.534l2.723-1.1v3.955a.656.656,0,0,0,.4.61.571.571,0,0,0,.232.046.613.613,0,0,0,.458-.206l1.683-1.869.885.6a.612.612,0,0,0,.869-.195.674.674,0,0,0,.1-.356v-4.461l2.442-.991v12.768Z" transform="translate(0 -92.598)" fill="#656565"/>
</svg>
