<svg xmlns="http://www.w3.org/2000/svg" width="40" height="39" viewBox="0 0 40 39">
  <g id="Groupe_1448" data-name="Groupe 1448" transform="translate(0 0.386)">
    <rect id="Rectangle_461" data-name="Rectangle 461" width="40" height="39" rx="7" transform="translate(0 -0.386)" fill="#dc8918"/>
    <path id="unpackarchive" d="M19.668,20.979H1.311a1.251,1.251,0,0,1-.932-.389A1.274,1.274,0,0,1,0,19.668V9.178a1.268,1.268,0,0,1,.379-.932,1.264,1.264,0,0,1,.932-.379H7.867q0-.963.061-1.967h-2.4a.871.871,0,0,1-.287-.666.937.937,0,0,1,.287-.686L9.773.307a.966.966,0,0,1,1.413,0l4.241,4.241a.907.907,0,0,1,.307.686.846.846,0,0,1-.307.666H13.009q.082,1.024.1,1.967h6.556a1.294,1.294,0,0,1,1.311,1.311V19.668a1.277,1.277,0,0,1-.379.922A1.25,1.25,0,0,1,19.668,20.979Zm0-11.8H13.132a17.179,17.179,0,0,1-1.168,6.576,1.17,1.17,0,0,1-.369.45.8.8,0,0,1-.471.184H10.018a.818.818,0,0,1-.461-.184,1.323,1.323,0,0,1-.4-.45,17.827,17.827,0,0,1-1.27-6.576H1.311V19.668H19.668Z" transform="translate(9.672 9.31)" fill="#fff"/>
  </g>
</svg>
