<svg xmlns="http://www.w3.org/2000/svg" width="40" height="39" viewBox="0 0 40 39">
  <g id="Groupe_1165" data-name="Groupe 1165" transform="translate(0 0.386)">
    <rect id="Rectangle_461" data-name="Rectangle 461" width="40" height="39" rx="7" transform="translate(0 -0.386)" fill="#dc181a"/>
    <path id="unpackarchive" d="M19.668,0H1.311A1.251,1.251,0,0,0,.379.389,1.274,1.274,0,0,0,0,1.311V11.8a1.268,1.268,0,0,0,.379.932,1.264,1.264,0,0,0,.932.379H7.867q0,.963.061,1.967h-2.4a.871.871,0,0,0-.287.666.937.937,0,0,0,.287.686l4.241,4.241a.966.966,0,0,0,1.413,0l4.241-4.241a.907.907,0,0,0,.307-.686.846.846,0,0,0-.307-.666H13.009q.082-1.024.1-1.967h6.556A1.294,1.294,0,0,0,20.979,11.8V1.311A1.277,1.277,0,0,0,20.6.389,1.25,1.25,0,0,0,19.668,0Zm0,11.8H13.132a17.179,17.179,0,0,0-1.168-6.576,1.17,1.17,0,0,0-.369-.45.8.8,0,0,0-.471-.184H10.018a.818.818,0,0,0-.461.184,1.323,1.323,0,0,0-.4.45A17.827,17.827,0,0,0,7.888,11.8H1.311V1.311H19.668Z" transform="translate(9.672 9.31)" fill="#fff"/>
  </g>
</svg>
