<svg id="Groupe_993" data-name="Groupe 993" xmlns="http://www.w3.org/2000/svg" xmlns:xlink="http://www.w3.org/1999/xlink" width="20.438" height="23.957" viewBox="0 0 20.438 23.957">
  <defs>
    <clipPath id="clip-path">
      <rect id="Rectangle_464" data-name="Rectangle 464" width="20.438" height="23.957" fill="#004476"/>
    </clipPath>
  </defs>
  <g id="Groupe_993-2" data-name="Groupe 993" clip-path="url(#clip-path)">
    <path id="Tracé_338" data-name="Tracé 338" d="M9.516,0c.4.346.791.705,1.207,1.031a.853.853,0,0,0,.484.146c.841.015,1.682-.007,2.523.013A2.64,2.64,0,0,1,16.367,3.83c.021,1.378,0,2.757,0,4.218.617,0,1.189-.006,1.762,0a2.179,2.179,0,0,1,2.285,2.2q.041,5.736,0,11.474a2.152,2.152,0,0,1-2.265,2.217q-5.046.025-10.092,0a2.182,2.182,0,0,1-2.258-2.289c-.008-.377,0-.754,0-1.208-.965,0-1.88,0-2.794,0a2.7,2.7,0,0,1-3.008-3Q0,10.809,0,4.171A2.69,2.69,0,0,1,2.96,1.184c1.039,0,2.079,0,3.163,0L5.857,2.261c-.561,0-1.136-.008-1.711,0A2.363,2.363,0,0,0,1.887,5.3c.132.458.482.538.892.537,1.261,0,2.523,0,3.784,0q3.455,0,6.908,0c.929,0,1.091-.165,1.091-1.075A2.226,2.226,0,0,0,12.1,2.26c-.559,0-1.118,0-1.714,0A2.453,2.453,0,0,0,9.218.309C9.158.272,9.174.106,9.155,0Zm9.331,16.041c0-1.8,0-3.6,0-5.407,0-.773-.239-1.006-1.007-1.007q-4.717,0-9.433,0c-.773,0-1.017.235-1.018,1Q7.38,16,7.387,21.378c0,.775.224.99,1.008.991q4.717,0,9.433,0c.815,0,1.016-.206,1.019-1.041,0-1.762,0-3.525,0-5.287" transform="translate(0 0)" fill="#004476"/>
    <path id="Tracé_339" data-name="Tracé 339" d="M20.647,4.116a.975.975,0,0,1-1.019.948.955.955,0,0,1-.922-.976.966.966,0,0,1,1.01-.952.989.989,0,0,1,.931.981" transform="translate(-11.529 -1.932)" fill="#004476"/>
    <path id="Tracé_340" data-name="Tracé 340" d="M27.361,30.641c-1.2,0-2.4-.015-3.6.007-.556.01-.82-.188-.793-.767.025-.539.009-1.08,0-1.619,0-.45.218-.653.664-.653q3.749,0,7.5,0c.472,0,.707.2.7.681-.011.56-.013,1.12,0,1.68.012.49-.223.679-.695.676-1.26-.01-2.519,0-3.779,0" transform="translate(-14.156 -17.016)" fill="#004476"/>
    <path id="Tracé_341" data-name="Tracé 341" d="M32.66,39.927c-.2,0-.4.01-.6,0-.488-.031-.547-.37-.54-.762s.125-.663.58-.652c.259.006.517,0,.776,0,.8,0,.932.1.925.722-.007.585-.148.694-.905.7H32.66v0" transform="translate(-19.429 -23.736)" fill="#004476"/>
    <path id="Tracé_342" data-name="Tracé 342" d="M24.044,46.258c-1,0-1.267-.191-1.092-.9.229-.923,1.02-.4,1.556-.5a.532.532,0,0,1,.709.569c.024.741-.081.827-1.174.827" transform="translate(-14.116 -27.616)" fill="#004476"/>
    <path id="Tracé_343" data-name="Tracé 343" d="M24.156,51.357c.159,0,.319.007.478,0,.516-.026.633.267.637.717,0,.47-.166.72-.656.708-.239-.006-.478,0-.717,0-.746,0-.905-.125-.912-.7-.007-.613.135-.724.931-.726h.239" transform="translate(-14.167 -31.653)" fill="#004476"/>
    <path id="Tracé_344" data-name="Tracé 344" d="M41.227,51.352c.179,0,.359,0,.538,0,.487-.009.6.293.6.7s-.128.706-.6.717c-.259.007-.518,0-.777,0-.8,0-.891-.1-.915-.746-.025-.7.425-.7.912-.679.079,0,.159,0,.239,0" transform="translate(-24.7 -31.647)" fill="#004476"/>
    <path id="Tracé_345" data-name="Tracé 345" d="M24.031,39.847c-.972,0-1.273-.221-1.082-.923.256-.943,1.07-.359,1.622-.484.4-.09.624.132.641.57.028.744-.091.837-1.18.837" transform="translate(-14.111 -23.652)" fill="#004476"/>
    <path id="Tracé_346" data-name="Tracé 346" d="M41.223,38.5c.159,0,.319.009.478,0,.495-.033.674.222.678.686s-.147.735-.643.735c-.239,0-.478,0-.717,0-.81,0-.928-.1-.924-.729,0-.613.1-.689.889-.691h.239" transform="translate(-24.713 -23.73)" fill="#004476"/>
    <path id="Tracé_347" data-name="Tracé 347" d="M41.175,46.325c-.179,0-.358,0-.537,0-.458.006-.554-.272-.557-.664s.054-.727.55-.739c.279-.007.557-.006.836,0,.748,0,.9.122.9.707s-.137.7-.891.7h-.3" transform="translate(-24.704 -27.684)" fill="#004476"/>
    <path id="Tracé_348" data-name="Tracé 348" d="M32.633,46.325c-.179,0-.358,0-.537,0-.457.013-.567-.266-.573-.654s.055-.731.548-.748c.278-.01.557-.007.835-.005.758,0,.893.109.9.7,0,.605-.121.707-.873.711h-.3" transform="translate(-19.43 -27.684)" fill="#004476"/>
    <path id="Tracé_349" data-name="Tracé 349" d="M32.665,52.781h-.537c-.517,0-.614-.329-.608-.76s.16-.687.634-.664c.238.011.478,0,.717,0,.8,0,.936.1.931.719s-.146.7-.957.706h-.179" transform="translate(-19.427 -31.653)" fill="#004476"/>
  </g>
</svg>
