<svg id="settings-line" xmlns="http://www.w3.org/2000/svg" width="22.215" height="22.215" viewBox="0 0 22.215 22.215">
  <path id="Tracé_255" data-name="Tracé 255" d="M15.96,11a4.86,4.86,0,1,0,4.86,4.86A4.83,4.83,0,0,0,15.96,11Zm0,8.331a3.471,3.471,0,1,1,3.471-3.471A3.437,3.437,0,0,1,15.96,19.331Z" transform="translate(-4.783 -4.752)" fill="#656565"/>
  <path id="Tracé_256" data-name="Tracé 256" d="M23.382,10.817l-1.944-.625-.417-1.041.972-1.8a1.167,1.167,0,0,0-.208-1.319L20.119,4.36A1.167,1.167,0,0,0,18.8,4.152L17,5.124l-1.041-.417-.625-1.944A1.128,1.128,0,0,0,14.288,2h-2.36a.973.973,0,0,0-.972.833l-.625,1.944a3.067,3.067,0,0,0-1.111.417l-1.8-.972A1.167,1.167,0,0,0,6.1,4.43L4.43,6.1a1.167,1.167,0,0,0-.208,1.319l.9,1.736c-.139.347-.278.764-.417,1.111l-1.944.625A1.128,1.128,0,0,0,2,11.927v2.36a1.106,1.106,0,0,0,.833,1.041l1.944.625L5.193,17l-.972,1.8a1.167,1.167,0,0,0,.208,1.319L6.1,21.785a1.167,1.167,0,0,0,1.319.208l1.8-.972,1.041.417.625,2.013a1.128,1.128,0,0,0,1.041.764h2.36a1.128,1.128,0,0,0,1.041-.764l.625-2.013L17,21.022l1.8.972a1.167,1.167,0,0,0,1.319-.208l1.666-1.666a1.167,1.167,0,0,0,.208-1.319L21.022,17l.417-1.041,2.013-.625a1.128,1.128,0,0,0,.764-1.041v-2.36a1.188,1.188,0,0,0-.833-1.111Zm-.555,3.263-2.5.764-.069.347-.625,1.458L19.425,17l1.25,2.291-1.388,1.388L17,19.425l-.347.208a6.591,6.591,0,0,1-1.458.625l-.347.069-.764,2.5H12.136l-.764-2.5-.347-.069-1.458-.625-.347-.208-2.291,1.25L5.541,19.286,6.79,17l-.208-.347a6.591,6.591,0,0,1-.625-1.458l-.069-.347-2.5-.764V12.136l2.36-.694.139-.347a5.893,5.893,0,0,1,.625-1.527l.208-.347L5.541,6.929,6.929,5.541,9.151,6.79,9.5,6.582a5.893,5.893,0,0,1,1.527-.625l.347-.139.764-2.43H14.08l.764,2.43.347.139a6.591,6.591,0,0,1,1.458.625L17,6.79l2.291-1.25,1.388,1.388L19.425,9.22l.208.347a6.591,6.591,0,0,1,.625,1.458l.069.347,2.5.764Z" transform="translate(-2 -2)" fill="#656565"/>
</svg>
