<svg xmlns="http://www.w3.org/2000/svg" width="15.425" height="12.339" viewBox="0 0 15.425 12.339">
  <g id="Groupe_1587" data-name="Groupe 1587" transform="translate(-1.125 -4.5)">
    <path id="Tracé_362" data-name="Tracé 362" d="M15.119,17.351l2.722-2.721,2.722,2.721.727-.727L18.567,13.9l2.721-2.722-.727-.727-2.721,2.722-2.722-2.721-.727.727L17.114,13.9l-2.721,2.722.727.727Z" transform="translate(-7.204 -3.233)"/>
    <path id="Tracé_363" data-name="Tracé 363" d="M15.778,4.5H6.866a.774.774,0,0,0-.56.241L1.125,10.208v.924L6.306,16.6a.774.774,0,0,0,.56.241h8.913a.772.772,0,0,0,.771-.771V5.271A.772.772,0,0,0,15.778,4.5Zm-.257,11.311H6.976L2.153,10.722v-.1L6.976,5.528h8.545Z"/>
  </g>
</svg>
