<svg xmlns="http://www.w3.org/2000/svg" width="27.131" height="18.992" viewBox="0 0 27.131 18.992">
  <path id="bxs-discount" d="M28.774,7.5H4.357A1.357,1.357,0,0,0,3,8.857v5.426H4.212A2.816,2.816,0,0,1,7.033,16.54a2.715,2.715,0,0,1-2.677,3.169H3v5.426a1.357,1.357,0,0,0,1.357,1.357H28.774a1.357,1.357,0,0,0,1.357-1.357V19.709H28.774A2.715,2.715,0,0,1,26.1,16.54a2.816,2.816,0,0,1,2.822-2.257h1.212V8.857A1.357,1.357,0,0,0,28.774,7.5ZM12.5,12.926a1.357,1.357,0,1,1-1.357,1.357A1.357,1.357,0,0,1,12.5,12.926Zm-1.085,8.682L19.55,10.756l2.17,1.628L13.581,23.236l-2.17-1.628Zm9.225-.543a1.357,1.357,0,1,1,1.357-1.357A1.357,1.357,0,0,1,20.635,21.065Z" transform="translate(-3 -7.5)"/>
</svg>
