<svg xmlns="http://www.w3.org/2000/svg" width="19.66" height="15.517" viewBox="0 0 19.66 15.517">
  <path id="edit" d="M9.786,11.637l1.278-1.278L9.389,8.684,8.111,9.962v.617H9.169v1.058h.617ZM14.635,3.7a.228.228,0,0,0-.364.011L10.414,7.571a.25.25,0,1,0,.353.353l3.857-3.857a.227.227,0,0,0,.011-.364Zm.882,6.546v2.094a3.18,3.18,0,0,1-3.173,3.174H3.174a3.056,3.056,0,0,1-2.243-.931A3.06,3.06,0,0,1,0,12.343V3.174A3.056,3.056,0,0,1,.931.931,3.06,3.06,0,0,1,3.174,0h9.169a3.03,3.03,0,0,1,1.289.275.336.336,0,0,1,.2.253.344.344,0,0,1-.1.32l-.54.54a.323.323,0,0,1-.353.088,1.953,1.953,0,0,0-.5-.066H3.174a1.7,1.7,0,0,0-1.245.518,1.7,1.7,0,0,0-.518,1.245v9.169a1.7,1.7,0,0,0,.518,1.245,1.7,1.7,0,0,0,1.245.518h9.169a1.768,1.768,0,0,0,1.763-1.763V10.954a.33.33,0,0,1,.1-.242l.705-.705a.331.331,0,0,1,.386-.077.319.319,0,0,1,.221.32ZM14.458,2.116,17.632,5.29,10.226,12.7H7.053V9.522Zm4.893,1.455L18.338,4.584,15.164,1.41,16.177.4a1.063,1.063,0,0,1,1.5,0l1.675,1.675a1.02,1.02,0,0,1,.309.749,1.02,1.02,0,0,1-.309.749Z"/>
</svg>
