<svg xmlns="http://www.w3.org/2000/svg" width="22.523" height="17.442" viewBox="0 0 22.523 17.442">
  <g id="eye" transform="translate(0)">
    <path id="Tracé_382" data-name="Tracé 382" d="M19.752,15.876A3.876,3.876,0,1,1,15.876,12a3.876,3.876,0,0,1,3.876,3.876Zm-1.938,0a1.938,1.938,0,1,1-1.938-1.938A1.938,1.938,0,0,1,17.814,15.876Z" transform="translate(-4.614 -7.155)" fill-rule="evenodd"/>
    <path id="Tracé_383" data-name="Tracé 383" d="M11.829,4.5A11.633,11.633,0,0,1,23.09,13.221a11.632,11.632,0,0,1-22.523,0A11.632,11.632,0,0,1,11.829,4.5Zm0,15.5a9.694,9.694,0,0,1-9.247-6.783,9.694,9.694,0,0,1,18.494,0A9.7,9.7,0,0,1,11.829,20Z" transform="translate(-0.567 -4.5)" fill-rule="evenodd"/>
  </g>
</svg>
