<svg xmlns="http://www.w3.org/2000/svg" width="55.836" height="17.442" viewBox="0 0 55.836 17.442">
  <g id="Groupe_1237" data-name="Groupe 1237" transform="translate(-1814.687 -661)">
    <g id="eye" transform="translate(1848 661)">
      <path id="Tracé_382" data-name="Tracé 382" d="M19.752,15.876A3.876,3.876,0,1,1,15.876,12a3.876,3.876,0,0,1,3.876,3.876Zm-1.938,0a1.938,1.938,0,1,1-1.938-1.938A1.938,1.938,0,0,1,17.814,15.876Z" transform="translate(-4.614 -7.155)" fill-rule="evenodd"/>
      <path id="Tracé_383" data-name="Tracé 383" d="M11.829,4.5A11.633,11.633,0,0,1,23.09,13.221a11.632,11.632,0,0,1-22.523,0A11.632,11.632,0,0,1,11.829,4.5Zm0,15.5a9.694,9.694,0,0,1-9.247-6.783,9.694,9.694,0,0,1,18.494,0A9.7,9.7,0,0,1,11.829,20Z" transform="translate(-0.567 -4.5)" fill-rule="evenodd"/>
    </g>
    <g id="edit" transform="translate(1814.687 661)">
      <path id="Tracé_2611" data-name="Tracé 2611" d="M2.25,29.25H21.034v1.342H2.25Z" transform="translate(-2.25 -13.15)"/>
      <path id="Tracé_2612" data-name="Tracé 2612" d="M18.856,6.946a1.3,1.3,0,0,0,0-1.878L16.441,2.653a1.3,1.3,0,0,0-1.878,0L4.5,12.715v4.293H8.793ZM15.5,3.592l2.415,2.415L15.9,8.019,13.489,5.6ZM5.842,15.667V13.252L12.55,6.543l2.415,2.415L8.257,15.667Z" transform="translate(-3.158 -2.25)"/>
    </g>
  </g>
</svg>
