<svg id="Groupe_935" data-name="Groupe 935" xmlns="http://www.w3.org/2000/svg" xmlns:xlink="http://www.w3.org/1999/xlink" width="15.016" height="15.015" viewBox="0 0 15.016 15.015">
  <defs>
    <clipPath id="clip-path">
      <rect id="Rectangle_410" data-name="Rectangle 410" width="15.016" height="15.015" fill="#7ad751"/>
    </clipPath>
  </defs>
  <g id="Groupe_934" data-name="Groupe 934" clip-path="url(#clip-path)">
    <path id="Tracé_323" data-name="Tracé 323" d="M1.253,13.762H14.237a1.443,1.443,0,0,1,.289.022.614.614,0,0,1,.49.634.625.625,0,0,1-.561.591,1.776,1.776,0,0,1-.184,0H.744A.646.646,0,0,1,0,14.278Q0,7.5,0,.72a.638.638,0,0,1,.454-.7.613.613,0,0,1,.774.457,1.361,1.361,0,0,1,.024.289q0,6.388,0,12.777Z" transform="translate(0 0)" fill="#7ad751"/>
    <path id="Tracé_324" data-name="Tracé 324" d="M84.439,92.541l-1.645,2.4c-.228.333-.454.666-.683,1a.607.607,0,0,1-.51.308c0-.045-.007-.09-.007-.135,0-.506,0-1.011,0-1.517a.4.4,0,0,1,.065-.211c.7-1.034,1.413-2.064,2.116-3.1a.661.661,0,0,1,1.077-.1c.762.761,1.548,1.5,2.324,2.247.033.032.067.062.112.1l3.8-5.45-.94.069c-.372.026-.743.067-1.115.073a.609.609,0,0,1-.574-.814.553.553,0,0,1,.471-.409c.482-.052.966-.084,1.449-.121q.939-.073,1.878-.143l.138-.01c.52-.026.751.182.79.7.082,1.1.169,2.2.242,3.3a.885.885,0,0,1-.09.438.583.583,0,0,1-.652.288A.613.613,0,0,1,92.2,90.9c-.052-.621-.1-1.242-.147-1.863,0-.028-.006-.057-.013-.12-.06.084-.1.139-.14.2L87.96,94.766a.644.644,0,0,1-1.1.1q-1.137-1.094-2.272-2.191c-.044-.042-.088-.083-.146-.136" transform="translate(-79.087 -84.067)" fill="#7ad751"/>
  </g>
</svg>
