<svg id="Groupe_761" data-name="Groupe 761" xmlns="http://www.w3.org/2000/svg" width="36" height="36" viewBox="0 0 36 36">
  <circle id="Ellipse_24" data-name="Ellipse 24" cx="18" cy="18" r="18" fill="none"/>
  <g id="menu-right-alt" transform="translate(6.189 7.804)">
    <path id="Tracé_203" data-name="Tracé 203" d="M29.367,8.96a1.46,1.46,0,0,0-1.46-1.46H7.46a1.46,1.46,0,1,0,0,2.921H27.906A1.46,1.46,0,0,0,29.367,8.96Z" transform="translate(-6 -7.5)" fill="#fff"/>
    <path id="Tracé_204" data-name="Tracé 204" d="M29.367,26.96a1.46,1.46,0,0,0-1.46-1.46H7.46a1.46,1.46,0,1,0,0,2.921H27.906A1.46,1.46,0,0,0,29.367,26.96Z" transform="translate(-6 -7.975)" fill="#fff"/>
    <path id="Tracé_205" data-name="Tracé 205" d="M28.144,16.5a1.46,1.46,0,1,1,0,2.921H16.46a1.46,1.46,0,1,1,0-2.921Z" transform="translate(-15 -7.738)" fill="#fff"/>
  </g>
</svg>
