<svg xmlns="http://www.w3.org/2000/svg" width="19.613" height="16.344" viewBox="0 0 19.613 16.344">
  <g id="justify-left" transform="translate(-4.5 -6.75)">
    <path id="Tracé_2610" data-name="Tracé 2610" d="M4.5,22.277a.817.817,0,0,1,.817-.817H16.758a.817.817,0,0,1,0,1.634H5.317A.817.817,0,0,1,4.5,22.277Zm0-4.9a.817.817,0,0,1,.817-.817H23.3a.817.817,0,0,1,0,1.634H5.317A.817.817,0,0,1,4.5,17.374Zm0-4.9a.817.817,0,0,1,.817-.817H23.3a.817.817,0,0,1,0,1.634H5.317A.817.817,0,0,1,4.5,12.47Zm0-4.9a.817.817,0,0,1,.817-.817H23.3a.817.817,0,0,1,0,1.634H5.317A.817.817,0,0,1,4.5,7.567Z" fill="#fff" fill-rule="evenodd"/>
  </g>
</svg>
