<svg xmlns="http://www.w3.org/2000/svg" width="59.932" height="85.22" viewBox="0 0 59.932 85.22">
  <g id="Groupe_986" data-name="Groupe 986" transform="translate(-296.694 -620.996)">
    <path id="badge-check" d="M17.136.375A2.086,2.086,0,0,1,18.669,1,2.083,2.083,0,0,1,19.3,2.536v13.87a1.954,1.954,0,0,1-.955,1.759L9.648,23.994.955,18.164A1.954,1.954,0,0,1,0,16.405V2.536A2.086,2.086,0,0,1,.628,1,2.083,2.083,0,0,1,2.161.375ZM7.488,16.456l9.648-9.648L15.628,5.3,7.488,13.441,3.668,9.621,2.161,11.129Z" transform="translate(302.263 651.924)" fill="#7ad751"/>
    <path id="Tracé_283" data-name="Tracé 283" d="M18.4,2.213A2.213,2.213,0,0,1,21.034.04,41.168,41.168,0,1,1,1.589,79.953a2.213,2.213,0,0,1-1.342-3.14h0a2.213,2.213,0,0,1,2.59-1.107A36.741,36.741,0,1,0,20.192,4.386,2.213,2.213,0,0,1,18.4,2.213Z" transform="matrix(0.998, -0.07, 0.07, 0.998, 296.694, 624.788)" fill="#7ad751"/>
  </g>
</svg>
