<svg id="location" xmlns="http://www.w3.org/2000/svg" width="14.028" height="19.638" viewBox="0 0 14.028 19.638">
  <path id="Tracé_310" data-name="Tracé 310" d="M18.556,12.653a1.4,1.4,0,1,1-1.4-1.4A1.4,1.4,0,0,1,18.556,12.653Z" transform="translate(-10.139 -5.639)" fill="#7ad751"/>
  <path id="Tracé_311" data-name="Tracé 311" d="M13.764,2.25A6.874,6.874,0,0,0,6.75,8.957c0,1.761.8,4.1,2.385,6.96a51.442,51.442,0,0,0,3.507,5.4,1.392,1.392,0,0,0,2.245,0,51.646,51.646,0,0,0,3.507-5.4c1.581-2.857,2.384-5.2,2.384-6.96A6.874,6.874,0,0,0,13.764,2.25Zm0,9.82A2.806,2.806,0,1,1,16.57,9.264,2.806,2.806,0,0,1,13.764,12.07Z" transform="translate(-6.75 -2.25)" fill="#7ad751"/>
</svg>
