<svg xmlns="http://www.w3.org/2000/svg" width="13.493" height="19.012" viewBox="0 0 13.493 19.012">
  <g id="lock" transform="translate(-5.625 -1.125)">
    <path id="Tracé_316" data-name="Tracé 316" d="M16.664,10.324H8.078a1.227,1.227,0,0,0-1.227,1.227v6.133a1.227,1.227,0,0,0,1.227,1.227h8.586a1.227,1.227,0,0,0,1.227-1.227V11.551A1.227,1.227,0,0,0,16.664,10.324ZM8.078,9.1a2.453,2.453,0,0,0-2.453,2.453v6.133a2.453,2.453,0,0,0,2.453,2.453h8.586a2.453,2.453,0,0,0,2.453-2.453V11.551A2.453,2.453,0,0,0,16.664,9.1Zm0-3.68a4.293,4.293,0,1,1,8.586,0V9.1H15.438V5.418a3.066,3.066,0,1,0-6.133,0V9.1H8.078Z" transform="translate(0)" fill-rule="evenodd"/>
  </g>
</svg>
