<svg xmlns="http://www.w3.org/2000/svg" width="139" height="82.601" viewBox="0 0 139 82.601">
  <g id="Groupe_36" data-name="Groupe 36" transform="translate(-109.913 -43)">
    <g id="Groupe_688" data-name="Groupe 688" transform="translate(109.913 43)">
      <g id="Groupe_687" data-name="Groupe 687" transform="translate(0 0)">
        <g id="Groupe_686" data-name="Groupe 686">
          <path id="Tracé_64" data-name="Tracé 64" d="M453.049,310.528c-3.732,0-7.464.039-11.2-.015a5.157,5.157,0,0,1-4.661-4.251,9.276,9.276,0,0,1,.335-3.968q1.815-8.733,3.648-17.461c.389-1.864.756-3.736,1.167-5.592a9.191,9.191,0,0,1,4.53-6.108,7.28,7.28,0,0,1,3.9-1.058q10.41,0,20.821,0a5.285,5.285,0,0,1,4.67,2.4,5.676,5.676,0,0,1,.807,4.39c-.618,3.207-1.309,6.391-1.973,9.583-.165.794-.587,1.207-1.232,1.208q-5.944.011-11.889,0c-.666,0-.862-.291-.813-1.126a27.291,27.291,0,0,1,.986-5.065c.523-2.089,1.115-4.151,1.465-6.3.205-1.263.052-1.5-.981-1.5-1.531,0-3.061-.007-4.592,0-.886.007-1.066.215-1.3,1.312q-2.516,11.9-5.04,23.8c-.351,1.658-.71,3.314-1.058,4.973-.2.94.011,1.291.782,1.3q2.422.015,4.844,0c.777-.005,1.038-.293,1.237-1.23.816-3.851,1.645-7.7,2.453-11.551.172-.821.572-1.2,1.217-1.2q5.944-.007,11.889,0c.741,0,.963.357.776,1.247-.647,3.089-1.3,6.176-1.975,9.255a8.87,8.87,0,0,1-4.3,5.854,7.552,7.552,0,0,1-4.133,1.134c-3.46-.013-6.919,0-10.379,0Z" transform="translate(-397.421 -244.308)" fill="#182284"/>
          <path id="Tracé_65" data-name="Tracé 65" d="M768.54,272.066q7.329,0,14.658,0a5.491,5.491,0,0,1,3.97,1.447,5.683,5.683,0,0,1,1.579,5.522c-.962,4.732-1.92,9.466-2.939,14.179a8.624,8.624,0,0,1-3.6,5.271,7.977,7.977,0,0,1-4.859,1.618q-6.2-.01-12.393,0c-1.236,0-1.423.165-1.74,1.68-.523,2.5-1.028,5.01-1.538,7.516-.2.966-.469,1.25-1.293,1.251q-5.882.01-11.764,0c-.862,0-1.066-.312-.851-1.358q.908-4.408,1.846-8.807,1.3-6.159,2.618-12.314c.778-3.673,1.525-7.356,2.337-11.017a2.7,2.7,0,0,0-.424-2.4c-.45-.59-.919-1.158-1.374-1.742a.618.618,0,0,1-.18-.557c.075-.281.282-.285.471-.286.881-.006,1.761,0,2.642-.005Zm3.66,3.591v-.007c-.839,0-1.677-.011-2.516,0-.75.013-1.009.285-1.2,1.184q-1.921,9.189-3.845,18.376c-.223,1.064-.078,1.314.821,1.32,1.446.011,2.893,0,4.339,0,1.285,0,1.467-.175,1.788-1.71q1.891-9.033,3.781-18.067c.167-.8.012-1.08-.657-1.1C773.877,275.641,773.038,275.658,772.2,275.658Z" transform="translate(-670.383 -244.298)" fill="#182284"/>
          <path id="Tracé_66" data-name="Tracé 66" d="M130.761,271.877q7.33,0,14.66,0a5.618,5.618,0,0,1,3.609,1.134,5.712,5.712,0,0,1,1.915,6q-1.395,6.99-2.9,13.943a8.8,8.8,0,0,1-4.343,5.818,7.751,7.751,0,0,1-4.2,1.144q-6.134-.012-12.269,0c-1.312,0-1.471.135-1.813,1.765-.508,2.425-1,4.857-1.483,7.289-.214,1.07-.493,1.392-1.34,1.393q-5.914.011-11.828,0c-.778,0-.985-.323-.785-1.278q1.47-7.052,2.965-14.1,1.663-7.888,3.327-15.776c.167-.792.282-1.608.511-2.369a2.535,2.535,0,0,0-.431-2.392c-.341-.465-.727-.877-1.069-1.341-.2-.277-.6-.512-.471-.945.133-.459.547-.278.844-.278q7.267-.013,14.534-.006Zm3.627,3.585v.006c-.839,0-1.678,0-2.516,0-.628,0-.99.332-1.158,1.144q-1.947,9.386-3.941,18.756c-.155.733.2.949.624.957q2.61.047,5.221,0c.547-.01.912-.357,1.053-1.117.282-1.515.64-3.008.954-4.514q1.472-7.049,2.937-14.1c.177-.847.048-1.109-.658-1.127C136.066,275.446,135.227,275.462,134.388,275.462Z" transform="translate(-109.913 -244.108)" fill="#182284"/>
          <path id="Tracé_67" data-name="Tracé 67" d="M1097.572,53.32l-1.415-.42a1.06,1.06,0,0,1,.775-.732,7.6,7.6,0,0,0,.738-.192.594.594,0,0,0,.468-.637.565.565,0,0,0-.54-.552c-.272-.026-.544-.041-.817-.053a1.116,1.116,0,0,1-1.112-.71c.4-.8,1.216-.4,1.755-.916-.237-.159-.445-.043-.649-.05-.347-.012-.705-.054-.791-.575a1.093,1.093,0,0,1,.445-1.045c.278-.25.837.019.855-.686.011-.446-.049-.9-.083-1.344-.071-.924-.215-1.877.679-2.409a10.267,10.267,0,0,1,.172,2.985c.016.659-.1,1.342.684,1.432a.64.64,0,0,1,.443.688c-.006.393-.25.506-.505.593a1.208,1.208,0,0,0-.393.233,4.743,4.743,0,0,1,1.809.451c.2.076.426.107.466.444a.673.673,0,0,1-.278.654,2.361,2.361,0,0,0-.958,2.228c.007.075,0,.194-.037.226-.68.595-.24,1.357-.213,2.068.091,2.377.2,4.755.228,7.134.07,6.437.432,12.844,1.125,19.222.05.462.18.8.564.935a1.64,1.64,0,0,1,.395.229c.448.318.577.667.024,1.012-.314.2-.362.5-.36.907a31.153,31.153,0,0,0,.887,6.067,52.119,52.119,0,0,0,3.382,11.056c1.094,2.432,2.395,4.713,3.582,7.079,1.211,2.411,2.4,4.842,3.592,7.265.1.2.2.406.28.62.244.639.123.971-.425,1.189-1,.4-1.828.027-2.515-1.174a84.462,84.462,0,0,1-3.823-7.547c-.615-1.382-1.217-2.775-1.783-4.19a1.74,1.74,0,0,0-1.692-1.323c-2.83-.018-5.659-.084-8.489-.132a1.894,1.894,0,0,1-.376-.023q-.94-.207-.417-1.191a1.733,1.733,0,0,1,1.749-1.1c2.385.159,4.773.274,7.155.517.633.064.794-.2.553-.917a99.027,99.027,0,0,1-3.141-12.771,59.012,59.012,0,0,1-.894-8.484q-.441-9.868-.9-19.735c-.036-.764-.145-1.523-.237-2.281a1.955,1.955,0,0,0-.625-1.328,1.709,1.709,0,0,1-.638-1.873C1096.471,53.306,1097.082,53.5,1097.572,53.32Z" transform="translate(-973.889 -43)" fill="#182284"/>
          <path id="Tracé_68" data-name="Tracé 68" d="M870.484,624.568c1.21.605,1.372,1.822,1.322,3.167-.026.683.225,1.559-.1,2s-1.03.133-1.566.141c-1.409.021-1.409.007-1.41-1.747,0-.291,0-.583-.007-.873a.866.866,0,0,0-.7-.953c-.041-.009-.083-.008-.125-.014-1.564-.249-1.564-.25-1.563,1.693,0,1.9,0,1.9-1.478,1.9-1.528,0-1.528,0-1.528-1.923,0-3.388.009-6.777-.01-10.166,0-.568.09-.8.584-.772,1.7.081,3.4-.1,5.09.113a5.859,5.859,0,0,1,1.17.28,2.255,2.255,0,0,1,1.461,1.788,9.522,9.522,0,0,1,.072,3.536A2.688,2.688,0,0,1,870.484,624.568Zm-4.146-2.962c0,1.588,0,1.589,1.29,1.506.167-.011.334-.028.5-.051a.665.665,0,0,0,.527-.5c.47-1.292-.042-2.348-1.151-2.378C866.339,620.155,866.339,620.155,866.338,621.605Z" transform="translate(-771.997 -547.437)" fill="#dc181a"/>
          <path id="Tracé_69" data-name="Tracé 69" d="M1115.056,629.754a7.292,7.292,0,0,1-2.867-.315,3.342,3.342,0,0,1-1.61-3.743c.071-.3.23-.26.389-.262q.786-.01,1.572,0c.45,0,.983-.2,1.026.752.012.259.269.371.488.425a4.609,4.609,0,0,0,1.376.085c.517-.029.863-.164.854-1s-.384-.952-.877-1.014c-.854-.106-1.713-.18-2.561-.335-1.48-.271-2.159-1.273-2.2-3.158-.005-.238,0-.476,0-.714,0-2.4.79-3.562,2.683-3.673a9.391,9.391,0,0,1,4,.248,3.181,3.181,0,0,1,1.68,3.606c-.051.288-.176.317-.354.317-.713,0-1.425-.007-2.137,0-.243,0-.4-.061-.412-.424-.018-.545-.307-.7-.688-.7-.334,0-.669,0-1,0-.416,0-.723.1-.733.783-.009.648.179.882.679.934.9.092,1.791.239,2.682.406,1.586.3,2.268,1.285,2.307,3.3.008.4,0,.795-.027,1.189-.139,2.005-1.153,3.222-2.75,3.292C1116.063,629.773,1115.559,629.754,1115.056,629.754Z" transform="translate(-989.205 -547.163)" fill="#dc181a"/>
          <path id="Tracé_70" data-name="Tracé 70" d="M1032.166,629.675a8.052,8.052,0,0,1-2.623-.241,3.21,3.21,0,0,1-1.839-3.762c.05-.293.179-.318.354-.318.734,0,1.467.006,2.2-.006.238,0,.329.113.344.412a.757.757,0,0,0,.666.792,4.827,4.827,0,0,0,1.252.067c.494-.03.884-.1.89-.956s-.368-1.024-.9-1.065a13.463,13.463,0,0,1-2.927-.442,2.568,2.568,0,0,1-1.785-2.685,8.615,8.615,0,0,1,.136-2.672c.284-1.036.821-1.775,1.674-1.93a9.627,9.627,0,0,1,4.923.13c1.189.406,1.9,2.1,1.594,3.6-.06.295-.2.291-.372.291-.713,0-1.425-.008-2.137,0-.263,0-.375-.118-.389-.456-.021-.5-.293-.66-.648-.665-.334,0-.669-.012-1,0-.389.011-.746.02-.769.733-.022.68.167.936.7.988.9.088,1.791.237,2.681.405,1.547.292,2.238,1.287,2.285,3.242.01.4,0,.795-.021,1.19-.134,2.078-1.176,3.3-2.841,3.345C1033.13,629.686,1032.648,629.676,1032.166,629.675Z" transform="translate(-916.397 -547.084)" fill="#dc181a"/>
          <path id="Tracé_71" data-name="Tracé 71" d="M949.409,623.433c0-1.879.015-3.759-.009-5.637-.007-.557.074-.792.577-.784,2.263.035,4.527.023,6.79.005.387,0,.58.093.547.649a17.46,17.46,0,0,0,0,1.9c.025.495-.109.632-.494.623-1.278-.029-2.557.009-3.835-.023-.42-.01-.64.1-.567.687a2,2,0,0,1,0,.475c-.068.571.077.782.57.763,1.235-.049,2.473,0,3.709-.026.38-.008.529.119.5.62a13.092,13.092,0,0,0,0,1.587c.028.5-.126.632-.5.624-1.173-.026-2.348.013-3.521-.02-.507-.014-.8.036-.773.863.026.7.085,1.027.741.987,1.255-.077,2.514-.008,3.772-.033.385-.008.576.084.543.642-.039.658-.023,1.323,0,1.984.011.387-.056.563-.408.561q-3.615-.026-7.23,0c-.432,0-.4-.3-.4-.657Q949.412,626.331,949.409,623.433Z" transform="translate(-847.641 -547.433)" fill="#dc181a"/>
          <path id="Tracé_72" data-name="Tracé 72" d="M607.675,623.4c0-1.879.012-3.759-.008-5.638-.005-.513.063-.75.538-.743q3.427.046,6.854,0c.434,0,.547.195.518.692-.046.787.251,1.8-.107,2.305s-1.185.141-1.8.163c-.838.03-1.677.035-2.515,0-.4-.019-.486.157-.484.631,0,1.278-.014,1.278,1.027,1.278,1.09,0,2.18.019,3.27-.009.366-.01.45.149.46.587.049,2.233.059,2.233-1.678,2.233-.755,0-1.509-.009-2.264,0-.936.014-.761-.145-.818,1-.033.658.12.853.649.832,1.256-.051,2.516.021,3.772-.032.527-.022.648.214.613.812s-.023,1.218,0,1.826c.014.406-.089.556-.425.554-2.389-.014-4.779-.018-7.169,0-.394,0-.435-.213-.432-.616C607.681,627.318,607.675,625.359,607.675,623.4Z" transform="translate(-547.332 -547.439)" fill="#dc181a"/>
          <path id="Tracé_73" data-name="Tracé 73" d="M693.4,629.859c-1.122,0-2.106-.018-3.089.01-.322.009-.422-.2-.53-.513-.431-1.254-.881-2.5-1.384-3.912-.484,1.3-.954,2.429-1.328,3.607-.208.654-.486.861-1.026.823-.856-.06-1.716-.016-2.692-.016.462-1.142.889-2.207,1.323-3.266.385-.939.76-1.885,1.174-2.8a1.368,1.368,0,0,0,.021-1.18c-.717-1.815-1.406-3.648-2.154-5.6,1.108,0,2.122,0,3.135,0,.309,0,.359.308.446.567.287.85.564,1.706.851,2.557.079.236.105.517.351.692.351-1.056.709-2.094,1.039-3.146.147-.469.336-.709.779-.685.915.05,1.834.015,2.857.015-.487,1.252-.936,2.407-1.386,3.56a2.715,2.715,0,0,1-.208.488c-1.026,1.574-.645,3.044.1,4.591C692.31,626.946,692.793,628.355,693.4,629.859Z" transform="translate(-613.84 -547.417)" fill="#dc181a"/>
          <path id="Tracé_74" data-name="Tracé 74" d="M778.078,623.446c0-1.9.017-3.808-.009-5.711-.008-.568.141-.713.572-.7,1.549.03,3.1.01,4.648.013a4.547,4.547,0,0,1,1.727.363,2.736,2.736,0,0,1,1.619,2.037,10.8,10.8,0,0,1,.166,3.846c-.247,2.12-1.1,3.1-2.8,3.275a15.028,15.028,0,0,1-2.32.063c-.517-.026-.65.212-.612.815s-.013,1.217.014,1.823c.021.468-.075.664-.481.638a15.457,15.457,0,0,0-2.009,0c-.421.028-.533-.153-.527-.667C778.09,627.307,778.078,625.376,778.078,623.446Zm3-1.682c0,1.756,0,1.756,1.364,1.738,1.232-.016,1.367-.189,1.358-1.746,0-.211-.007-.423-.026-.633a.811.811,0,0,0-.585-.819,4.284,4.284,0,0,0-.871-.1C781.08,620.184,781.079,620.19,781.081,621.764Z" transform="translate(-697.078 -547.449)" fill="#dc181a"/>
          <path id="Tracé_75" data-name="Tracé 75" d="M1082.272,268.258a2.146,2.146,0,0,1,.237,1.346c-.053,3.649-.079,7.3-.3,10.939a59.851,59.851,0,0,1-2.34,14.538,43.657,43.657,0,0,1-2.354,5.408,1.089,1.089,0,0,1-.724.573c-.714.244-1.027-.13-.787-1.02.628-2.322,1.29-4.63,1.948-6.939a90.033,90.033,0,0,0,3.191-14.222c.362-3.084.633-6.185.95-9.278C1082.137,269.154,1082.211,268.707,1082.272,268.258Z" transform="translate(-958.826 -240.953)" fill="#182284"/>
          <path id="Tracé_76" data-name="Tracé 76" d="M1102.261,577.4c3.953.01,7.732,3.405,9.02,8.124.027.1.044.2.072.3.126.45.448.932-.123,1.27a.9.9,0,0,1-1.3-.523c-.163-.365-.258-.776-.394-1.161-1.858-5.253-6.059-7.852-10.49-6.511-.289.087-.759.474-.87-.04-.115-.532.461-.439.731-.574a8.664,8.664,0,0,1,2.419-.8C1101.634,577.433,1101.948,577.426,1102.261,577.4Z" transform="translate(-978.368 -512.621)" fill="#182284"/>
        </g>
      </g>
    </g>
  </g>
</svg>
