<svg id="money" xmlns="http://www.w3.org/2000/svg" width="33.75" height="27" viewBox="0 0 33.75 27">
  <path id="Tracé_325" data-name="Tracé 325" d="M30.375,4.5H1.125V27h29.25Zm-2.25,20.25H3.375v-18h24.75Z" transform="translate(-1.125 -4.5)" fill="#fff"/>
  <path id="Tracé_326" data-name="Tracé 326" d="M32.625,10.125V29.25H6.75V31.5H34.875V10.125Z" transform="translate(-1.125 -4.5)" fill="#fff"/>
  <path id="Tracé_327" data-name="Tracé 327" d="M15.75,21.267a5.306,5.306,0,0,0,5.063-5.507,5.305,5.305,0,0,0-5.063-5.507,5.305,5.305,0,0,0-5.063,5.507A5.305,5.305,0,0,0,15.75,21.267Zm0-8.765c1.551,0,2.813,3.257,2.813,3.257S17.3,19.016,15.75,19.016a3.063,3.063,0,0,1-2.813-3.257A3.063,3.063,0,0,1,15.75,12.5Z" transform="translate(-1.125 -4.5)" fill="#fff"/>
  <path id="Tracé_328" data-name="Tracé 328" d="M5.625,9.563h2.25V21.938H5.625Z" transform="translate(-1.125 -4.5)" fill="#fff"/>
  <path id="Tracé_329" data-name="Tracé 329" d="M23.625,9.563h2.25V21.938h-2.25Z" transform="translate(-1.125 -4.5)" fill="#fff"/>
</svg>
