<svg xmlns="http://www.w3.org/2000/svg" width="18.819" height="18.821" viewBox="0 0 18.819 18.821">
  <path id="moneyalt" d="M17.649,15.106a3.672,3.672,0,0,0-1.378-.8,5.73,5.73,0,0,0-1.562-.193,6.191,6.191,0,0,0-2.325.478,11.866,11.866,0,0,0-2.2,1.158q-1.011.68-1.994,1.36a13.981,13.981,0,0,1-2.049,1.176,5.282,5.282,0,0,1-2.021.533,4.146,4.146,0,0,1-2.941-1.14A3.519,3.519,0,0,1,.365,16.5a3.21,3.21,0,0,1-.358-1.286V3.584q0-.882,1.176.129a3.686,3.686,0,0,0,1.388.79,5.643,5.643,0,0,0,1.553.2,4.633,4.633,0,0,0,1.865-.478A16.227,16.227,0,0,0,8.112,3.06q1.066-.689,2.159-1.378A15.061,15.061,0,0,1,12.541.505,6,6,0,0,1,14.71,0,4.4,4.4,0,0,1,17.65,1.14a3.519,3.519,0,0,1,.818,1.176A3.21,3.21,0,0,1,18.826,3.6V15.235q0,.882-1.176-.129Zm0-9.3a5.082,5.082,0,0,0-1.176-.79,5.815,5.815,0,0,1-1.737-1.1,2.03,2.03,0,0,1-.616-1.507V1.231a7,7,0,0,0-1.865.634,16.112,16.112,0,0,0-1.92,1.1L8.5,4.2,6.577,5.311l-1.865.643V7.112a2.345,2.345,0,0,1-.717,1.737,1.366,1.366,0,0,1-1.636.3,2.261,2.261,0,0,0-.6-.193A3.75,3.75,0,0,1,1.183,8.8v4.208a5.082,5.082,0,0,0,1.176.79A6.077,6.077,0,0,1,4.1,14.922a2.03,2.03,0,0,1,.616,1.507v1.158a7,7,0,0,0,1.865-.634,16.112,16.112,0,0,0,1.92-1.1l1.838-1.231,1.92-1.1,1.865-.634V11.706a2.353,2.353,0,0,1,.717-1.727,1.339,1.339,0,0,1,1.636-.294,5.386,5.386,0,0,1,1.176.772V5.807ZM9.416,13.636a2.139,2.139,0,0,1-2.5.165,2.905,2.905,0,0,1-1.029-2.536,6.6,6.6,0,0,1,1.02-3.4A7.9,7.9,0,0,1,9.415,5.2a2.139,2.139,0,0,1,2.5-.165,2.927,2.927,0,0,1,1.029,2.554,6.547,6.547,0,0,1-1.02,3.391,7.937,7.937,0,0,1-2.508,2.656Z" transform="translate(-0.007 0)" fill="#fee934"/>
</svg>
