<svg id="more-vertical-r" xmlns="http://www.w3.org/2000/svg" width="16.706" height="20.048" viewBox="0 0 16.706 20.048">
  <path id="Tracé_331" data-name="Tracé 331" d="M16.671,10.841A1.671,1.671,0,1,0,15,9.171,1.671,1.671,0,0,0,16.671,10.841Z" transform="translate(-8.317 -3.323)" fill="#9d9d9d"/>
  <path id="Tracé_332" data-name="Tracé 332" d="M18.341,16.671A1.671,1.671,0,1,1,16.671,15,1.671,1.671,0,0,1,18.341,16.671Z" transform="translate(-8.317 -6.647)" fill="#9d9d9d"/>
  <path id="Tracé_333" data-name="Tracé 333" d="M16.671,25.841A1.671,1.671,0,1,0,15,24.171,1.671,1.671,0,0,0,16.671,25.841Z" transform="translate(-8.317 -9.97)" fill="#9d9d9d"/>
  <path id="Tracé_334" data-name="Tracé 334" d="M3,2.506A2.506,2.506,0,0,1,5.506,0H17.2a2.506,2.506,0,0,1,2.506,2.506V17.542A2.506,2.506,0,0,1,17.2,20.048H5.506A2.506,2.506,0,0,1,3,17.542Zm2.506-.835H17.2a.835.835,0,0,1,.835.835V17.542a.835.835,0,0,1-.835.835H5.506a.835.835,0,0,1-.835-.835V2.506A.835.835,0,0,1,5.506,1.671Z" transform="translate(-3)" fill="#000;color:#f16e01 !important;" fill-rule="evenodd"/>
</svg>
