<svg id="print" xmlns="http://www.w3.org/2000/svg" width="25.004" height="25.005" viewBox="0 0 25.004 25.005">
  <path id="Tracé_2691" data-name="Tracé 2691" d="M22.17,6.964V1.125H5.084V6.964a4.173,4.173,0,0,0-3.959,4.162v10H4.667V19.461H2.792V11.127a2.5,2.5,0,0,1,2.5-2.5H21.962a2.5,2.5,0,0,1,2.5,2.5v8.335H22.17v1.667h3.959v-10A4.173,4.173,0,0,0,22.17,6.964ZM20.5,6.959H6.751V2.792H20.5Z" transform="translate(-1.125 -1.125)" fill="#004476"/>
  <path id="Tracé_2692" data-name="Tracé 2692" d="M27.844,14.063h1.667V15.73H27.844Z" transform="translate(-8.049 -4.478)" fill="#004476"/>
  <path id="Tracé_2693" data-name="Tracé 2693" d="M7.427,18.563H5.344V20.23H7.428V30.649H21.6V20.23h2.084V18.563Zm12.5,10.419H9.094V20.23H19.929Z" transform="translate(-2.218 -5.644)" fill="#004476"/>
</svg>
