<svg id="dashboard-line" xmlns="http://www.w3.org/2000/svg" width="27.261" height="22.705" viewBox="0 0 27.261 22.705">
  <path id="Tracé_191" data-name="Tracé 191" d="M23.4,12.32l-4.879,4.8a2.477,2.477,0,1,0,1.164,1.172l4.888-4.8Z" transform="translate(-3.841 -5.657)" fill="#656565"/>
  <path id="Tracé_192" data-name="Tracé 192" d="M15.121,4.25a13.615,13.615,0,0,0-10.4,22.416l.248.289h20.31l.248-.289A13.615,13.615,0,0,0,15.121,4.25ZM24.484,25.3H5.759a11.914,11.914,0,0,1-2.568-6.473H6.039V17.179H3.191a11.9,11.9,0,0,1,2.848-7.117l2.023,2.023,1.164-1.164L7.22,8.89A11.9,11.9,0,0,1,14.3,5.934v2.89h1.651V5.943A11.947,11.947,0,0,1,27.01,17.179H24.137v1.651h2.914A11.914,11.914,0,0,1,24.484,25.3Z" transform="translate(-1.491 -4.25)" fill="#656565"/>
</svg>
