<svg xmlns="http://www.w3.org/2000/svg" width="26.786" height="25" viewBox="0 0 26.786 25">
  <path id="users" d="M8.273,12.5a4.81,4.81,0,0,0-3.7,1.786H2.706a3.2,3.2,0,0,1-1.925-.565A1.911,1.911,0,0,1,0,12.068Q0,7.143,1.73,7.143a2.675,2.675,0,0,1,.607.293,9.2,9.2,0,0,0,1.36.593,4.893,4.893,0,0,0,1.66.3,5.61,5.61,0,0,0,1.856-.321,6.942,6.942,0,0,0-.07.921A6.143,6.143,0,0,0,8.273,12.5Zm14.941,8.887A3.476,3.476,0,0,1,22.2,24.031,3.763,3.763,0,0,1,19.49,25H7.3a3.761,3.761,0,0,1-2.706-.969,3.48,3.48,0,0,1-1.019-2.644q0-.74.049-1.444a14.249,14.249,0,0,1,.2-1.521,11.9,11.9,0,0,1,.369-1.513,7.127,7.127,0,0,1,.6-1.36,4.927,4.927,0,0,1,.865-1.13,3.627,3.627,0,0,1,1.193-.746A4.194,4.194,0,0,1,8.4,13.393a1.639,1.639,0,0,1,.6.3q.46.3,1.019.67a6.128,6.128,0,0,0,1.493.67,6.475,6.475,0,0,0,5.259-.67q.559-.37,1.019-.67a1.639,1.639,0,0,1,.6-.3,4.191,4.191,0,0,1,1.556.279,3.638,3.638,0,0,1,1.193.746A4.9,4.9,0,0,1,22,15.548a7.19,7.19,0,0,1,.6,1.36,11.818,11.818,0,0,1,.37,1.513,14.249,14.249,0,0,1,.2,1.521q.049.7.049,1.444ZM8.929,3.571A3.443,3.443,0,0,1,7.882,6.1,3.437,3.437,0,0,1,5.357,7.143,3.445,3.445,0,0,1,2.832,6.1,3.439,3.439,0,0,1,1.786,3.571,3.439,3.439,0,0,1,2.832,1.046,3.445,3.445,0,0,1,5.357,0,3.437,3.437,0,0,1,7.882,1.046,3.443,3.443,0,0,1,8.929,3.571ZM18.75,8.929a5.163,5.163,0,0,1-1.569,3.788,5.158,5.158,0,0,1-3.788,1.569A5.165,5.165,0,0,1,9.6,12.717,5.16,5.16,0,0,1,8.036,8.929,5.16,5.16,0,0,1,9.6,5.141a5.165,5.165,0,0,1,3.788-1.569,5.158,5.158,0,0,1,3.788,1.569A5.163,5.163,0,0,1,18.75,8.929Zm8.036,3.139A1.913,1.913,0,0,1,26,13.721a3.192,3.192,0,0,1-1.925.565H22.211a4.81,4.81,0,0,0-3.7-1.786,6.143,6.143,0,0,0,1.13-3.571,6.942,6.942,0,0,0-.07-.921,5.61,5.61,0,0,0,1.856.321,4.9,4.9,0,0,0,1.66-.3,9.15,9.15,0,0,0,1.36-.593,2.654,2.654,0,0,1,.607-.293q1.73,0,1.73,4.925ZM25,3.571A3.443,3.443,0,0,1,23.954,6.1a3.571,3.571,0,0,1-5.051,0,3.439,3.439,0,0,1-1.046-2.525A3.439,3.439,0,0,1,18.9,1.046a3.571,3.571,0,0,1,5.051,0A3.443,3.443,0,0,1,25,3.571Z" fill="#004476"/>
</svg>
