<svg xmlns="http://www.w3.org/2000/svg" width="18.333" height="22" viewBox="0 0 18.333 22">
  <path id="user" d="M18.333,18.2a4.15,4.15,0,0,1-.9,2.679A2.683,2.683,0,0,1,15.283,22H3.051A2.681,2.681,0,0,1,.9,20.883,4.155,4.155,0,0,1,0,18.2a20.606,20.606,0,0,1,.122-2.3,12.347,12.347,0,0,1,.451-2.177,7.244,7.244,0,0,1,.838-1.876,4.013,4.013,0,0,1,1.346-1.275,3.715,3.715,0,0,1,1.927-.494,6.19,6.19,0,0,0,4.483,1.833,6.19,6.19,0,0,0,4.483-1.833,3.718,3.718,0,0,1,1.926.494,4.013,4.013,0,0,1,1.346,1.275,7.244,7.244,0,0,1,.838,1.876,12.347,12.347,0,0,1,.451,2.177,20.606,20.606,0,0,1,.122,2.3ZM14.667,5.5a5.3,5.3,0,0,1-1.611,3.889A5.3,5.3,0,0,1,9.167,11,5.3,5.3,0,0,1,5.278,9.389,5.3,5.3,0,0,1,3.667,5.5,5.3,5.3,0,0,1,5.278,1.612,5.3,5.3,0,0,1,9.167,0a5.3,5.3,0,0,1,3.888,1.612A5.3,5.3,0,0,1,14.667,5.5Z" transform="translate(0 0)"/>
</svg>
